#N canvas 263 217 450 300 10;
#X obj 242 56 netreceive 3000;
#X obj 82 93 print;
#X obj 184 110 unpack f1 f2 f3 f4 f5 f6 f7 f8 f9 f10;
#X floatatom 101 151 5 0 0 0 - - -, f 5;
#X floatatom 137 151 5 0 0 0 - - -, f 5;
#X floatatom 173 151 5 0 0 0 - - -, f 5;
#X floatatom 209 151 5 0 0 0 - - -, f 5;
#X floatatom 246 151 5 0 0 0 - - -, f 5;
#X floatatom 282 151 5 0 0 0 - - -, f 5;
#X floatatom 318 151 5 0 0 0 - - -, f 5;
#X floatatom 354 151 5 0 0 0 - - -, f 5;
#X floatatom 388 149 5 0 0 0 - - -, f 5;
#X floatatom 424 149 5 0 0 0 - - -, f 5;
#X connect 0 0 1 0;
#X connect 0 0 2 0;
#X connect 2 0 3 0;
#X connect 2 1 4 0;
#X connect 2 2 5 0;
#X connect 2 3 6 0;
#X connect 2 4 7 0;
#X connect 2 5 8 0;
#X connect 2 6 9 0;
#X connect 2 7 10 0;
#X connect 2 8 11 0;
#X connect 2 9 12 0;
