#N canvas 0 22 1280 651 12;
#N canvas 0 22 1920 980 GENOM-INPUT 0;
#X obj 666 174 netreceive 3000;
#X floatatom 340 491 5 0 0 0 - - -, f 5;
#X floatatom 381 492 5 0 0 0 - - -, f 5;
#X floatatom 425 488 5 0 0 0 - - -, f 5;
#X floatatom 470 490 5 0 0 0 - - -, f 5;
#X floatatom 518 491 5 0 0 0 - - -, f 5;
#X floatatom 566 493 5 0 0 0 - - -, f 5;
#X floatatom 620 494 5 0 0 0 - - -, f 5;
#X floatatom 776 502 5 0 0 0 - - -, f 5;
#X floatatom 837 503 5 0 0 0 - - -, f 5;
#X floatatom 884 506 5 0 0 0 - - -, f 5;
#X obj 566 567 s Genom6;
#X obj 622 524 s Genom7;
#X obj 777 540 s Genom8;
#X obj 837 564 s Genom9;
#X obj 887 538 s Genom10;
#X floatatom 944 502 5 0 0 0 - - -, f 5;
#X floatatom 985 503 5 0 0 0 - - -, f 5;
#X floatatom 1029 499 5 0 0 0 - - -, f 5;
#X floatatom 1074 501 5 0 0 0 - - -, f 5;
#X floatatom 1122 502 5 0 0 0 - - -, f 5;
#X floatatom 1160 504 5 0 0 0 - - -, f 5;
#X floatatom 1207 507 5 0 0 0 - - -, f 5;
#X floatatom 1248 504 5 0 0 0 - - -, f 5;
#X floatatom 1291 502 5 0 0 0 - - -, f 5;
#X floatatom 1338 505 5 0 0 0 - - -, f 5;
#X obj 937 563 s Genom11;
#X obj 977 539 s Genom12;
#X obj 1020 562 s Genom13;
#X obj 1064 535 s Genom14;
#X obj 1105 571 s Genom15;
#X obj 1160 539 s Genom16;
#X obj 1196 579 s Genom17;
#X obj 1249 542 s Genom18;
#X obj 1287 584 s Genom19;
#X obj 1338 545 s Genom20;
#X floatatom 1397 502 5 0 0 0 - - -, f 5;
#X floatatom 1438 503 5 0 0 0 - - -, f 5;
#X floatatom 1643 507 5 0 0 0 - - -, f 5;
#X floatatom 1808 502 5 0 0 0 - - -, f 5;
#X floatatom 1856 503 5 0 0 0 - - -, f 5;
#X floatatom 1894 505 5 0 0 0 - - -, f 5;
#X floatatom 1941 508 5 0 0 0 - - -, f 5;
#X floatatom 1982 505 5 0 0 0 - - -, f 5;
#X floatatom 2025 503 5 0 0 0 - - -, f 5;
#X floatatom 2072 506 5 0 0 0 - - -, f 5;
#X obj 1399 593 s Genom21;
#X obj 1444 548 s Genom22;
#X obj 1604 568 s Genom23;
#X obj 1804 542 s Genom24;
#X obj 1856 576 s Genom25;
#X obj 1881 542 s Genom26;
#X obj 1954 581 s Genom27;
#X obj 1983 544 s Genom28;
#X obj 2031 582 s Genom29;
#X obj 2075 544 s Genom30;
#X msg 942 160 add2 \$1;
#X msg 942 216;
#X msg 868 126 set;
#X obj 942 122 random 128;
#X obj 868 81 loadbang;
#X obj 836 38 t b b;
#X obj 836 8 bng 20 250 50 0 empty empty empty 17 7 0 10 -262144 -1
-1;
#X msg 214 218 set \$1 \$2 \$3 \$4 \$5 \$6 \$7 \$8 \$9 \$10 \$11 \$12
\$13 \$14 \$15 \$16 \$17 \$18 \$19 \$20 \$21 \$22 \$23 \$24 \$25 \$26
\$27 \$28 \$29 \$30;
#X msg 214 286;
#X text 167 498 SIRR-DELAY:;
#X text 104 592 DELAY TIME (0-1280);
#X text 105 574 DELAY FEEDBACK (0-1);
#X text 104 554 HIGHPASS-FREQUENCY (0-12800);
#X text 105 534 FILTERED SIGNAL VOLUME (0-1);
#X text 104 616 DELAYED SIGNAL VOLUME (0-1);
#X obj 339 521 s Genom1;
#X obj 381 562 s Genom2;
#X obj 421 524 s Genom3;
#X obj 470 571 s Genom4;
#X obj 519 526 s Genom5;
#X obj 697 252 s FullGenome;
#X text 897 9 CREATE RANDOM PSEUDO-GENOME FOR TESTING;
#X obj 657 20 r test-genome;
#X text 747 572 BLINZELN :;
#X text 693 601 GATE MODE (0 - 128);
#X text 100 643 FILTER MODULATION ( <64: OFF \, >64: ON);
#X text 106 664 FILTER MODULATION RATE (0 - 1280 ms);
#X text 1606 602 REVERB_SEND:;
#X text 1598 628 REVERB DECAY (0 - 100);
#X text 692 623 TEMPO GATE 1 (1 - 12800 ms);
#X text 694 653 LENGTH GATE 1 ( 1 - 513 ms);
#X text 694 681 TEMPO GATE 2 (1 - 12800 ms);
#X text 695 710 DELAY RATE MODULATION (<64: OFF \, >64: ON);
#X text 697 735 DELAY RATE MOD TEMPO (1 m- 1280 ms);
#X text 697 761 LENGTH GATE 2 ( 1 - 1025 ms);
#X text 693 784 DELAY RATE MOD MULTIPLICATION FACTOR (1 - 128);
#X text 692 813 DELAY TIME (1 - 3072 ms);
#X text 700 836 DELAY FEEDBACK ( 0 - 1);
#X text 699 862 REVERB SEND (0 - 1);
#X text 701 883 BAND PASS FILTER Q (0 - 8);
#X text 694 901 BAND PASS FILTER FREQ (0 - 1280 Htz);
#X text 694 928 GATE MOD (<64: OFF \, >64: ON);
#X text 694 958 GATE MOD TEMPO (1 - 512 ms);
#X floatatom 2131 504 5 0 0 0 - - -, f 5;
#X floatatom 2176 503 5 0 0 0 - - -, f 5;
#X floatatom 2239 509 5 0 0 0 - - -, f 5;
#X floatatom 2277 505 5 0 0 0 - - -, f 5;
#X floatatom 2318 502 5 0 0 0 - - -, f 5;
#X floatatom 2361 500 5 0 0 0 - - -, f 5;
#X floatatom 2408 497 5 0 0 0 - - -, f 5;
#X obj 2120 583 s Genom31;
#X obj 2152 547 s Genom32;
#X obj 2220 578 s Genom33;
#X obj 2255 549 s Genom34;
#X obj 2310 579 s Genom35;
#X obj 2349 556 s Genom36;
#X floatatom 3304 828 5 0 0 0 - - -, f 5;
#X floatatom 2567 795 5 0 0 0 - - -, f 5;
#X obj 2405 583 s Genom37;
#X text 1980 627 KARPLUS-STRONG;
#X floatatom 2480 504 5 0 0 0 - - -, f 5;
#X floatatom 2527 501 5 0 0 0 - - -, f 5;
#X obj 2468 560 s Genom38;
#X obj 2524 587 s Genom39;
#X obj 1433 272 unpack f1 f2 f3 f4 f54 f6 f7 f8 f9 f10 f11 f12 f13
f14 f15 f16 f17 f18 f19 f20 f21 f22 f23 f24 f25 f26 f27 f28 f29 f30
f31 f32 f33 f34 f35 f36 f37 f38 f39 f40;
#X obj 942 81 kalashnikov 40;
#X floatatom 2620 507 5 0 0 0 - - -, f 5;
#X obj 2617 593 s Genom40;
#X connect 0 0 63 0;
#X connect 0 0 76 0;
#X connect 0 0 120 0;
#X connect 1 0 71 0;
#X connect 2 0 72 0;
#X connect 3 0 73 0;
#X connect 4 0 74 0;
#X connect 5 0 75 0;
#X connect 6 0 11 0;
#X connect 7 0 12 0;
#X connect 8 0 13 0;
#X connect 9 0 14 0;
#X connect 10 0 15 0;
#X connect 16 0 26 0;
#X connect 17 0 27 0;
#X connect 18 0 28 0;
#X connect 19 0 29 0;
#X connect 20 0 30 0;
#X connect 21 0 31 0;
#X connect 22 0 32 0;
#X connect 23 0 33 0;
#X connect 24 0 34 0;
#X connect 25 0 35 0;
#X connect 36 0 46 0;
#X connect 37 0 47 0;
#X connect 38 0 48 0;
#X connect 39 0 49 0;
#X connect 40 0 50 0;
#X connect 41 0 51 0;
#X connect 42 0 52 0;
#X connect 43 0 53 0;
#X connect 44 0 54 0;
#X connect 45 0 55 0;
#X connect 56 0 57 0;
#X connect 57 0 76 0;
#X connect 57 0 120 0;
#X connect 58 0 57 0;
#X connect 59 0 56 0;
#X connect 60 0 58 0;
#X connect 61 0 121 0;
#X connect 61 1 58 0;
#X connect 62 0 61 0;
#X connect 63 0 64 0;
#X connect 78 0 62 0;
#X connect 99 0 106 0;
#X connect 100 0 107 0;
#X connect 101 0 108 0;
#X connect 102 0 109 0;
#X connect 103 0 110 0;
#X connect 104 0 111 0;
#X connect 105 0 114 0;
#X connect 113 0 112 0;
#X connect 116 0 118 0;
#X connect 117 0 119 0;
#X connect 120 0 1 0;
#X connect 120 1 2 0;
#X connect 120 2 3 0;
#X connect 120 3 4 0;
#X connect 120 4 5 0;
#X connect 120 5 6 0;
#X connect 120 6 7 0;
#X connect 120 7 8 0;
#X connect 120 8 9 0;
#X connect 120 9 10 0;
#X connect 120 10 16 0;
#X connect 120 11 17 0;
#X connect 120 12 18 0;
#X connect 120 13 19 0;
#X connect 120 14 20 0;
#X connect 120 15 21 0;
#X connect 120 16 22 0;
#X connect 120 17 23 0;
#X connect 120 18 24 0;
#X connect 120 19 25 0;
#X connect 120 20 36 0;
#X connect 120 21 37 0;
#X connect 120 22 38 0;
#X connect 120 23 39 0;
#X connect 120 24 40 0;
#X connect 120 25 41 0;
#X connect 120 26 42 0;
#X connect 120 27 43 0;
#X connect 120 28 44 0;
#X connect 120 29 45 0;
#X connect 120 30 99 0;
#X connect 120 31 100 0;
#X connect 120 32 101 0;
#X connect 120 33 102 0;
#X connect 120 34 103 0;
#X connect 120 35 104 0;
#X connect 120 36 105 0;
#X connect 120 37 116 0;
#X connect 120 38 117 0;
#X connect 120 39 122 0;
#X connect 121 0 59 0;
#X connect 121 2 57 0;
#X connect 122 0 123 0;
#X restore 489 125 pd GENOM-INPUT;
#N canvas 0 22 1280 651 AUDIO-INPUT 1;
#N canvas 0 50 1916 997 (subpatch) 0;
#X array \$0-ARRAY 702912 float 2;
#X coords 0 1 702912 -1 200 140 1;
#X restore 1060 205 graph;
#X obj 731 772 dac~;
#X obj 733 489 bng 20 250 50 0 empty empty empty 17 7 0 10 -262144
-1 -1;
#X obj 733 559 tabplay~ \$0-ARRAY;
#X floatatom 733 318 10 0 0 0 - - -, f 10;
#X obj 756 233 bng 20 250 50 0 empty empty empty 17 7 0 10 -262144
-1 -1;
#N canvas 640 49 1280 651 load 0;
#X obj 111 26 inlet;
#X obj 111 349 soundfiler;
#X obj 111 90 openpanel;
#X obj 111 136 t b a;
#X msg 111 113 set \$1;
#X obj 195 83 f \$0;
#X obj 111 63 t b b;
#X obj 111 321 list trim;
#X obj 111 294 list;
#X obj 59 435 outlet;
#X obj 41 142 inlet;
#X msg 195 103 \$1-ARRAY;
#X obj 111 236 list prepend read -resize;
#X obj 111 436 s \$0-ARRAY;
#X obj 111 377 bang;
#X msg 111 405 normalize;
#X msg 111 162 D:/AURAL/pdptch/- ARTIFICIAL_LIFE/glocken.wav;
#X connect 0 0 6 0;
#X connect 1 0 9 0;
#X connect 1 0 14 0;
#X connect 2 0 4 0;
#X connect 3 0 16 0;
#X connect 3 1 16 0;
#X connect 4 0 3 0;
#X connect 5 0 11 0;
#X connect 6 0 2 0;
#X connect 6 1 5 0;
#X connect 7 0 1 0;
#X connect 8 0 7 0;
#X connect 10 0 16 0;
#X connect 11 0 8 1;
#X connect 12 0 8 0;
#X connect 14 0 15 0;
#X connect 15 0 13 0;
#X connect 16 0 12 0;
#X restore 733 291 pd load;
#X obj 847 513 spigot;
#X obj 886 435 tgl 20 0 empty empty empty 17 7 0 10 -262144 -1 -1 1
1;
#X obj 732 737 *~;
#X obj 757 587 s~ pureOut;
#X msg 686 519 stop;
#X obj 750 698 * 0.01;
#X text 915 436 LOOP;
#X text 741 469 PLAY;
#X obj 823 635 vsl 30 60 0 100 0 0 empty empty empty 0 -9 0 10 -262144
-1 -1 0 1;
#X text 751 212 LOAD SOUND (WAV only);
#X obj 886 368 loadbang;
#X msg 886 408 1;
#X msg 1007 428 \; pd dsp \$1;
#X obj 419 438 soundfiler;
#X obj 444 329 f \$0;
#X obj 419 410 list trim;
#X obj 419 383 list;
#X msg 444 349 \$1-ARRAY;
#X obj 419 293 list prepend read -resize;
#X obj 419 525 s \$0-ARRAY;
#X obj 419 466 bang;
#X msg 419 494 normalize;
#X msg 419 190 ../palestrina.wav;
#X obj 419 154 bng 15 250 50 0 empty empty empty 17 7 0 10 -262144
-1 -1;
#X msg 750 664 0;
#X obj 1383 104 getdir;
#X obj 1383 75 bng 20 250 50 0 empty empty empty 17 7 0 10 -262144
-1 -1;
#X msg 1383 204 read -resize C:/Users/BlockUser/ITU/ART-LIFE/PROJEKT/GIT/evolution_and_music/pure_data/palestrina.wav
;
#X obj 1383 398 soundfiler;
#X obj 1383 485 s \$0-ARRAY;
#X obj 1383 426 bang;
#X msg 1383 454 normalize;
#X msg 1383 138 set read -resize \$1/palestrina.wav;
#X obj 1383 175 t b a;
#X obj 307 504 print;
#X obj 1408 266 f \$0;
#X obj 1383 347 list trim;
#X obj 1383 320 list;
#X msg 1408 286 \$1-ARRAY;
#X obj 176 167 loadbang;
#X connect 2 0 3 0;
#X connect 3 0 9 0;
#X connect 3 0 10 0;
#X connect 3 1 7 0;
#X connect 4 0 2 0;
#X connect 5 0 6 1;
#X connect 6 0 4 0;
#X connect 7 0 2 0;
#X connect 8 0 7 1;
#X connect 9 0 1 0;
#X connect 9 0 1 1;
#X connect 11 0 3 0;
#X connect 12 0 9 1;
#X connect 15 0 12 0;
#X connect 17 0 18 0;
#X connect 18 0 8 0;
#X connect 18 0 19 0;
#X connect 20 0 27 0;
#X connect 21 0 24 0;
#X connect 22 0 20 0;
#X connect 22 0 41 0;
#X connect 23 0 22 0;
#X connect 24 0 23 1;
#X connect 25 0 23 0;
#X connect 27 0 28 0;
#X connect 28 0 26 0;
#X connect 28 0 2 0;
#X connect 29 0 25 0;
#X connect 30 0 21 0;
#X connect 30 0 29 0;
#X connect 31 0 12 0;
#X connect 32 0 39 0;
#X connect 33 0 32 0;
#X connect 33 0 42 0;
#X connect 34 0 44 0;
#X connect 35 0 37 0;
#X connect 37 0 38 0;
#X connect 38 0 36 0;
#X connect 39 0 40 0;
#X connect 40 0 34 0;
#X connect 40 1 34 0;
#X connect 42 0 45 0;
#X connect 43 0 35 0;
#X connect 44 0 43 0;
#X connect 45 0 44 1;
#X connect 46 0 30 0;
#X restore 721 125 pd AUDIO-INPUT;
#N canvas 0 22 1916 997 GENOM-ARRAY 0;
#N canvas 0 22 450 300 (subpatch) 0;
#X array 30POINTGENOME 30 float 5;
#A 0 92 94 86 56 103 79 114 115 1 38 117 51 112 86 39 52 112 101 64
83 81 39 76 11 19 124 9 113 6 15;
#X coords 0 127 29 0 200 140 1;
#X restore 83 105 graph;
#X msg 94 349 \; 30POINTGENOME 0 \$1 \$2 \$3 \$4 \$5 \$6 \$7 \$8 \$9
\$10 \$11 \$12 \$13 \$14 \$15 \$16 \$17 \$18 \$19 \$20 \$21 \$22 \$23
\$24 \$25 \$26 \$27 \$28 \$29 \$30;
#X obj 98 281 r FullGenome;
#X floatatom 1580 427 5 0 0 0 - - -, f 5;
#X obj 1587 531 / 64;
#X obj 1585 456 - 64;
#X floatatom 1625 631 5 0 0 0 - - -, f 5;
#X connect 2 0 1 0;
#X connect 3 0 5 0;
#X connect 4 0 6 0;
#X connect 5 0 4 0;
#X restore 599 207 pd GENOM-ARRAY;
#X obj 1449 496 s test-genome;
#X obj 1449 462 bng 20 250 50 0 empty empty empty 17 7 0 10 -262144
-1 -1;
#N canvas 0 22 1916 997 REVERB_SEND 0;
#X obj 301 109 catch~ VerbSend;
#X obj 559 257 rev1~;
#X obj 533 318 dac~;
#X floatatom 575 146 5 0 0 0 - - -, f 5;
#X obj 575 213 / 1.28;
#X obj 575 108 r Genom23;
#X text 675 186 REVERB DECAY (0 - 100);
#X connect 0 0 1 0;
#X connect 1 0 2 0;
#X connect 1 0 2 1;
#X connect 3 0 4 0;
#X connect 4 0 1 1;
#X connect 5 0 3 0;
#X restore 588 553 pd REVERB_SEND;
#X text 591 523 GENOM 23;
#N canvas 0 57 1920 997 SIRR-DELAY 0;
#X obj 457 464 hip~;
#X floatatom 664 443 5 0 0 0 - - -, f 5;
#X obj 495 431 r hip_del;
#X obj 456 497 hip~;
#X obj 494 464 r hip_del;
#X obj 456 563 hip~;
#X obj 494 530 r hip_del;
#X obj 456 257 r~ pureOut;
#X obj 760 740 dac~;
#X obj 561 582 *~;
#X floatatom 579 544 5 0 100 0 - - -, f 5;
#X floatatom 851 512 5 0 0 0 - - -, f 5;
#X obj 851 537 pack f 55;
#X obj 851 564 line~;
#X obj 726 618 *~;
#X floatatom 744 567 5 0 100 0 - - -, f 5;
#X obj 968 672 *~;
#X floatatom 986 642 5 0 100 0 - - -, f 5;
#X obj 455 695 delwrite~ SIRR 1280;
#X obj 852 599 vd~ SIRR 1280;
#X obj 456 529 hip~;
#X obj 494 496 r hip_del;
#X text 675 415 0 12800;
#X floatatom 664 193 5 0 0 0 - - -, f 5;
#X floatatom 744 191 5 0 0 0 - - -, f 5;
#X floatatom 851 191 5 0 0 0 - - -, f 5;
#X floatatom 986 188 5 0 0 0 - - -, f 5;
#X floatatom 579 196 5 0 0 0 - - -, f 5;
#X obj 579 226 / 128;
#X obj 664 232 * 100;
#X obj 851 232 * 10;
#X obj 986 224 / 128;
#X obj 744 230 / 128;
#X obj 457 422 *~;
#X obj 508 402 tgl 20 0 empty empty empty 17 7 0 10 -262144 -1 -1 1
1;
#X text 808 487 min 0 \, max 1280;
#X text 631 570 min 0 \, max 1!!!;
#X obj 300 338 loadbang;
#X msg 300 382 1;
#X text 55 57 SIRR-DELAY:;
#X text 64 124 DELAY FEEDBACK (0-1);
#X text 64 84 FILTERED SIGNAL VOLUME (0-1);
#X obj 579 163 line;
#X obj 579 124 pack f 100;
#X obj 664 163 line;
#X obj 664 124 pack f 100;
#X obj 744 163 line;
#X obj 744 124 pack f 100;
#X obj 851 162 line;
#X obj 851 123 pack f 100;
#X obj 986 161 line;
#X obj 986 122 pack f 100;
#X text 63 166 DELAY OUTPUT VOLUME (0-1);
#X obj 135 542 s test-genome;
#X obj 135 508 bng 20 250 50 0 empty empty empty 17 7 0 10 -262144
-1 -1;
#X obj 389 805 compressor~;
#X obj 405 857 dac~;
#X obj 1172 285 tgl 20 0 empty empty empty 17 7 0 10 -262144 -1 -1
0 1;
#X obj 1172 344 counter 0 29;
#X obj 1172 374 tabread 30POINTGENOME;
#X floatatom 1232 289 5 0 0 0 - - -, f 5;
#X obj 1172 313 metro 222;
#X obj 1172 400 * 100;
#X obj 664 469 s hip_del;
#X floatatom 1074 188 5 0 0 0 - - -, f 5;
#X obj 1074 160 line;
#X obj 1074 121 pack f 100;
#X obj 1074 215 moses 64;
#X msg 1074 238 0;
#X msg 1127 238 1;
#X obj 1074 265 change;
#X floatatom 1232 185 5 0 0 0 - - -, f 5;
#X obj 1232 157 line;
#X obj 1232 118 pack f 100;
#X text 63 188 FILTER MODULATION ( <64: OFF \, >64: ON);
#X text 69 209 FILTER MODULATION RATE (0 - 1280 ms);
#X text 63 142 DELAY TIME (0-1280 ms);
#X text 63 104 HIGHPASS-FREQUENCY (0-12800 Htz);
#X obj 579 6 r Genom1;
#X obj 664 5 r Genom2;
#X obj 744 5 r Genom3;
#X obj 851 5 r Genom4;
#X obj 986 7 r Genom5;
#X obj 1074 9 r Genom6;
#X obj 1232 13 r Genom7;
#X obj 1172 449 line;
#X obj 1172 426 pack f 55;
#X obj 1232 214 * 10;
#X obj 759 692 *~ 1;
#X obj 842 717 tgl 20 0 empty empty empty 17 7 0 10 -262144 -1 -1 0
1;
#X connect 0 0 3 0;
#X connect 1 0 63 0;
#X connect 2 0 0 1;
#X connect 3 0 20 0;
#X connect 4 0 3 1;
#X connect 5 0 9 0;
#X connect 5 0 18 0;
#X connect 6 0 5 1;
#X connect 7 0 33 0;
#X connect 9 0 88 0;
#X connect 10 0 9 1;
#X connect 11 0 12 0;
#X connect 12 0 13 0;
#X connect 13 0 19 0;
#X connect 14 0 18 0;
#X connect 15 0 14 1;
#X connect 16 0 88 0;
#X connect 17 0 16 1;
#X connect 19 0 14 0;
#X connect 19 0 16 0;
#X connect 20 0 5 0;
#X connect 21 0 20 1;
#X connect 23 0 29 0;
#X connect 24 0 32 0;
#X connect 25 0 30 0;
#X connect 26 0 31 0;
#X connect 27 0 28 0;
#X connect 28 0 10 0;
#X connect 29 0 1 0;
#X connect 30 0 11 0;
#X connect 31 0 17 0;
#X connect 32 0 15 0;
#X connect 33 0 0 0;
#X connect 34 0 33 1;
#X connect 37 0 38 0;
#X connect 38 0 34 0;
#X connect 42 0 27 0;
#X connect 43 0 42 0;
#X connect 44 0 23 0;
#X connect 45 0 44 0;
#X connect 46 0 24 0;
#X connect 47 0 46 0;
#X connect 48 0 25 0;
#X connect 49 0 48 0;
#X connect 50 0 26 0;
#X connect 51 0 50 0;
#X connect 54 0 53 0;
#X connect 55 0 56 0;
#X connect 55 0 56 1;
#X connect 57 0 61 0;
#X connect 58 0 59 0;
#X connect 59 0 62 0;
#X connect 60 0 61 1;
#X connect 60 0 86 1;
#X connect 61 0 58 0;
#X connect 62 0 86 0;
#X connect 64 0 67 0;
#X connect 65 0 64 0;
#X connect 66 0 65 0;
#X connect 67 0 68 0;
#X connect 67 1 69 0;
#X connect 68 0 70 0;
#X connect 69 0 70 0;
#X connect 70 0 57 0;
#X connect 71 0 87 0;
#X connect 72 0 71 0;
#X connect 73 0 72 0;
#X connect 78 0 43 0;
#X connect 79 0 45 0;
#X connect 80 0 47 0;
#X connect 81 0 49 0;
#X connect 82 0 51 0;
#X connect 83 0 66 0;
#X connect 84 0 73 0;
#X connect 85 0 63 0;
#X connect 86 0 85 0;
#X connect 87 0 60 0;
#X connect 88 0 8 1;
#X connect 88 0 8 0;
#X connect 89 0 88 1;
#X restore 517 392 pd SIRR-DELAY;
#X text 521 366 GENOM 1 - 7;
#N canvas 0 22 1280 651 BLINZELN 1;
#X obj 312 496 delwrite~ blinzeln 2000;
#X floatatom 580 324 5 0 0 0 - - -, f 5;
#X obj 580 355 pack f 44;
#X obj 580 409 line~;
#X obj 407 459 *~;
#X obj 312 385 *~;
#X msg 411 240 0;
#X obj 411 213 delay 128;
#X obj 795 737 *~;
#X obj 795 770 throw~ VerbSend;
#X floatatom 325 130 5 0 0 0 - - -, f 5;
#X obj 219 96 tgl 20 0 empty empty empty 17 7 0 10 -262144 -1 -1 0
1;
#X obj 219 159 metro 900;
#X msg 219 193 bang;
#X obj 77 101 loadbang;
#X msg 77 139 1;
#X obj 870 268 line;
#X msg 902 248 0;
#X obj 870 165 t b b;
#X obj 870 120 bng 24 250 50 0 empty empty empty 17 7 0 10 -262144
-1 -1;
#X obj 734 97 tgl 20 0 empty empty empty 17 7 0 10 -262144 -1 -1 0
1;
#X floatatom 801 100 5 0 0 0 - - -, f 5;
#X obj 734 145 metro 5120;
#X obj 331 288 sig~;
#X obj 979 308 del 5;
#X obj 1305 122 cup;
#X obj 1305 183 tabread 30POINTGENOME;
#X obj 1305 151 mod 30;
#X obj 1279 62 tgl 20 0 empty empty empty 17 7 0 10 -262144 -1 -1 0
1;
#X floatatom 1474 79 5 0 0 0 - - -, f 5;
#X obj 1305 98 metro 666;
#X obj 1474 235 pack f f;
#X obj 1474 208 t b f;
#X obj 1474 281 line;
#X obj 1280 335 *;
#X obj 1279 301 t b f;
#X obj 1279 240 sel 0;
#X msg 1279 270 1;
#X floatatom 627 653 5 0 0 0 - - -, f 5;
#X obj 579 672 vcf~;
#X obj 469 653 sig~;
#X obj 183 316 r~ pureOut;
#X text 643 627 19;
#X obj 425 73 r Genom10;
#X obj 801 -108 r Genom11;
#X obj 1279 -109 r Genom12;
#X obj 1428 -108 r Genom13;
#X obj 957 -102 r Genom14;
#X obj 1043 241 r Genom15;
#X obj 580 177 r Genom16;
#X obj 426 322 r Genom17;
#X obj 814 627 r Genom18;
#X obj 338 552 r Genom20;
#X obj 53 -164 r Genom21;
#X obj 338 -187 r Genom22;
#X obj 553 -73 moses 42;
#X obj 617 -73 moses 84;
#X msg 553 -31 0;
#X msg 617 -31 1;
#X msg 670 -31 2;
#X obj 553 -11 change;
#X obj 553 25 sel 0 1 2;
#X msg 219 45 0;
#X msg 593 77 1;
#X msg 625 77 0;
#X msg 250 45 1;
#X obj 226 -121 metro 123;
#X floatatom 286 -148 5 0 0 0 - - -, f 5;
#X obj 226 -93 counter 0 127;
#X obj 553 -136 r Genom8;
#X obj 279 5 r Genom9;
#X text 806 585 18;
#X text 530 -161 GATE MODE (0 - 128);
#X text 231 -21 TEMPO GATE 1 (1 - 12800 ms);
#X obj 426 407 pack f 100;
#X obj 801 61 + 1;
#X text 724 -134 TEMPO GATE 2 (1 - 12800 ms);
#X obj 1279 -47 moses 64;
#X obj 1279 31 change;
#X msg 1279 -5 0;
#X msg 1332 -6 1;
#X floatatom 1279 -78 5 0 0 0 - - -, f 5;
#X floatatom 801 -50 5 0 0 0 - - -, f 5;
#X floatatom 553 -99 5 0 0 0 - - -, f 5;
#X floatatom 1428 -72 5 0 0 0 - - -, f 5;
#X obj 1428 -35 * 10;
#X text 361 48 LENGTH GATE 1 ( 1 - 513 ms);
#X text 1237 -147 DELAY RATE MODULATION (<64: OFF \, >64: ON);
#X obj 1244 577 s test-genome;
#X obj 1244 543 bng 20 250 50 0 empty empty empty 17 7 0 10 -262144
-1 -1;
#X text 1501 -109 DELAY RATE MOD TEMPO (1 m- 1280 ms);
#X text 941 216 DELAY RATE MOD MULTIPLICATION FACTOR (1 - 128);
#X floatatom 1043 274 5 0 0 0 - - -, f 5;
#X text 934 -128 LENGTH GATE 2 ( 1 - 1025 ms);
#X obj 957 -16 moses 1;
#X obj 1428 -10 moses 1;
#X obj 1043 315 moses 1;
#X obj 425 169 moses 1;
#X obj 279 105 moses 1;
#X floatatom 580 206 5 0 0 0 - - -, f 5;
#X obj 580 234 * 24;
#X obj 579 699 vcf~;
#X obj 580 260 + 1;
#X obj 579 440 vd~ blinzeln 3073;
#X text 547 151 DELAY TIME (1 - 3072 ms);
#X text 394 303 DELAY FEEDBACK ( 0 - 1);
#X obj 426 373 / 128;
#X obj 426 433 line~;
#X floatatom 426 349 5 0 0 0 - - -, f 5;
#X obj 814 685 / 128;
#X text 789 599 REVERB SEND (0 - 1);
#X obj 627 506 r Genom19;
#X obj 627 607 / 16;
#X floatatom 627 531 5 0 0 0 - - -, f 5;
#X obj 627 555 pack f 100;
#X obj 627 581 line;
#X text 639 480 BAND PASS FILTER Q (0 - 8);
#X text 81 549 BAND PASS FILTER FREQ (0 - 1280 Htz);
#X obj 338 633 moses 1;
#X obj 338 605 * 10;
#X obj 226 -148 tgl 20 0 empty empty empty 17 7 0 10 -262144 -1 -1
0 1;
#X obj 53 -107 moses 64;
#X obj 106 -48 change;
#X msg 53 -77 0;
#X msg 106 -78 1;
#X floatatom 53 -130 5 0 0 0 - - -, f 5;
#X floatatom 338 -159 5 0 0 0 - - -, f 5;
#X obj 338 -133 * 4;
#X obj 338 -106 moses 1;
#X text -13 -187 GATE MOD (<64: OFF \, >64: ON);
#X text 229 -70 GATE MOD TEMPO (1 - 512 ms);
#X msg 870 213 1 860;
#X msg 331 240 2;
#X obj 923 288 sel 2;
#X msg 215 268 0;
#X obj 184 366 *~;
#X msg 70 330 1;
#X obj 70 291 r Genom22;
#X obj 957 -44 * 10;
#X obj 425 141 * 10;
#X floatatom 957 -71 5 0 0 0 - - -, f 5;
#X floatatom 425 104 5 0 0 0 - - -, f 5;
#X floatatom 814 654 5 0 100 0 - - -, f 5;
#X floatatom 338 580 5 0 0 0 - - -, f 5;
#X obj 631 766 dac~;
#X obj 655 686 tgl 20 0 empty empty empty 17 7 0 10 -262144 -1 -1 0
1;
#X msg 1003 164 set 1 \$1;
#X obj 630 718 *~ 0.5;
#X obj 279 80 * 10;
#X obj 801 36 * 10;
#X connect 1 0 2 0;
#X connect 2 0 3 0;
#X connect 3 0 103 0;
#X connect 4 0 0 0;
#X connect 5 0 0 0;
#X connect 5 0 39 0;
#X connect 6 0 23 0;
#X connect 7 0 6 0;
#X connect 8 0 9 0;
#X connect 10 0 12 1;
#X connect 11 0 12 0;
#X connect 12 0 13 0;
#X connect 13 0 7 0;
#X connect 13 0 132 0;
#X connect 14 0 15 0;
#X connect 14 0 134 0;
#X connect 15 0 12 0;
#X connect 16 0 23 0;
#X connect 16 0 133 0;
#X connect 17 0 16 0;
#X connect 18 0 131 0;
#X connect 18 1 17 0;
#X connect 19 0 18 0;
#X connect 20 0 22 0;
#X connect 21 0 22 1;
#X connect 22 0 18 0;
#X connect 23 0 5 1;
#X connect 24 0 17 0;
#X connect 25 0 27 0;
#X connect 26 0 31 0;
#X connect 27 0 26 0;
#X connect 28 0 30 0;
#X connect 28 0 36 0;
#X connect 29 0 30 1;
#X connect 29 0 32 0;
#X connect 30 0 25 0;
#X connect 31 0 33 0;
#X connect 32 0 31 0;
#X connect 32 1 31 1;
#X connect 33 0 35 0;
#X connect 34 0 2 0;
#X connect 35 0 34 0;
#X connect 35 1 34 1;
#X connect 36 0 37 0;
#X connect 37 0 35 0;
#X connect 38 0 39 2;
#X connect 38 0 101 2;
#X connect 39 0 101 0;
#X connect 39 1 101 0;
#X connect 40 0 39 1;
#X connect 40 0 101 1;
#X connect 41 0 135 0;
#X connect 43 0 141 0;
#X connect 44 0 82 0;
#X connect 45 0 81 0;
#X connect 46 0 84 0;
#X connect 47 0 140 0;
#X connect 48 0 92 0;
#X connect 49 0 99 0;
#X connect 50 0 108 0;
#X connect 51 0 142 0;
#X connect 52 0 143 0;
#X connect 53 0 125 0;
#X connect 54 0 126 0;
#X connect 55 0 57 0;
#X connect 55 1 56 0;
#X connect 56 0 58 0;
#X connect 56 1 59 0;
#X connect 57 0 60 0;
#X connect 58 0 60 0;
#X connect 59 0 60 0;
#X connect 60 0 61 0;
#X connect 61 0 62 0;
#X connect 61 0 63 0;
#X connect 61 1 65 0;
#X connect 61 1 64 0;
#X connect 61 2 65 0;
#X connect 61 2 63 0;
#X connect 62 0 11 0;
#X connect 63 0 20 0;
#X connect 64 0 20 0;
#X connect 65 0 11 0;
#X connect 66 0 68 0;
#X connect 67 0 66 1;
#X connect 68 0 55 0;
#X connect 69 0 83 0;
#X connect 70 0 148 0;
#X connect 74 0 107 0;
#X connect 75 0 21 0;
#X connect 77 0 79 0;
#X connect 77 1 80 0;
#X connect 78 0 28 0;
#X connect 79 0 78 0;
#X connect 80 0 78 0;
#X connect 81 0 77 0;
#X connect 82 0 149 0;
#X connect 83 0 55 0;
#X connect 84 0 85 0;
#X connect 85 0 95 0;
#X connect 89 0 88 0;
#X connect 92 0 96 0;
#X connect 94 1 146 0;
#X connect 95 1 29 0;
#X connect 96 1 34 0;
#X connect 97 1 7 1;
#X connect 98 1 10 0;
#X connect 99 0 100 0;
#X connect 100 0 102 0;
#X connect 101 0 147 0;
#X connect 101 1 147 0;
#X connect 102 0 1 0;
#X connect 103 0 4 0;
#X connect 103 0 39 0;
#X connect 106 0 74 0;
#X connect 107 0 4 1;
#X connect 108 0 106 0;
#X connect 109 0 8 1;
#X connect 111 0 113 0;
#X connect 112 0 38 0;
#X connect 113 0 114 0;
#X connect 114 0 115 0;
#X connect 115 0 112 0;
#X connect 118 1 40 0;
#X connect 119 0 118 0;
#X connect 120 0 66 0;
#X connect 121 0 123 0;
#X connect 121 1 124 0;
#X connect 122 0 120 0;
#X connect 123 0 122 0;
#X connect 124 0 122 0;
#X connect 125 0 121 0;
#X connect 126 0 127 0;
#X connect 127 0 128 0;
#X connect 128 1 67 0;
#X connect 131 0 16 0;
#X connect 132 0 23 0;
#X connect 133 0 24 0;
#X connect 134 0 23 0;
#X connect 135 0 5 0;
#X connect 136 0 135 1;
#X connect 137 0 136 0;
#X connect 138 0 94 0;
#X connect 139 0 97 0;
#X connect 140 0 138 0;
#X connect 141 0 139 0;
#X connect 142 0 109 0;
#X connect 143 0 119 0;
#X connect 145 0 147 1;
#X connect 146 0 131 0;
#X connect 147 0 144 1;
#X connect 147 0 144 0;
#X connect 147 0 8 0;
#X connect 148 0 98 0;
#X connect 149 0 75 0;
#X restore 651 390 pd BLINZELN;
#X text 657 362 GENOM 8 - 22;
#N canvas 0 83 1920 980 WAVETABLE 0;
#N canvas 0 22 450 300 (subpatch) 0;
#X array GENOM_WAVETABLE 67 float 1;
#A 0 -0.640625 -0.1875 -0.390625 0.9375 0.203125 -0.3125 -0.5625 -0.046875
-0.90625 0.15625 0.953125 -0.96875 -0.890625 0.15625 0.453125 0.234375
0.5625 0.25 -0.21875 0.25 0.578125 -0.90625 -0.71875 -0.171875 -1 -0.09375
0.8125 -0.765625 0.375 0.90625 0.640625 -0.234375 -0.03125 -0.21875
0.484375 -0.84375 -0.3125 0.21875 0.421875 -0.875 0.046875 0.328125
-0.078125 0.78125 0.15625 -0.921875 0.71875 0.109375 -0.3125 0.8125
-0.09375 -0.546875 0.859375 -0.25 0.8125 0.9375 0.34375 0.359375 -0.015625
0.03125 -0.6875 -0.09375 0.1875 0.921875 -0.640625 -0.1875 -0.390625
;
#X coords 0 1 66 -1 200 140 1;
#X restore 594 -460 graph;
#X obj 1093 -134 r FullGenome;
#X msg 1442 -354 add2 \$1;
#X msg 1442 -311;
#X msg 1368 -437 set;
#X obj 1442 -437 random 128;
#X obj 1368 -478 loadbang;
#X obj 1336 -521 t b b;
#X obj 1336 -551 bng 20 250 50 0 empty empty empty 17 7 0 10 -262144
-1 -1;
#X obj 1442 -478 kalashnikov 67;
#X msg 1646 -455 \; GENOM_WAVETABLE 0 \$1 \$2 \$3 \$4 \$5 \$6 \$7 \$8
\$9 \$10 \$11 \$12 \$13 \$14 \$15 \$16 \$17 \$18 \$19 \$20 \$21 \$22
\$23 \$24 \$25 \$26 \$27 \$28 \$29 \$30 \$31 \$32 \$33 \$34 \$35 \$36
\$37 \$38 \$39 \$40 \$41 \$42 \$43 \$44 \$45 \$46 \$47 \$48 \$49 \$50
\$51 \$52 \$53 \$54 \$55 \$56 \$57 \$58 \$59 \$60 \$61 \$62 \$63 \$64
\$65 \$66 \$67;
#X obj 1442 -382 / 64;
#X obj 1442 -408 - 64;
#X obj 295 195 f;
#X obj 324 195 f;
#X obj 354 195 f;
#X obj 383 195 f;
#X obj 58 98 metro 155;
#X obj 58 54 tgl 20 0 empty empty empty 17 7 0 10 -262144 -1 -1 0 1
;
#X floatatom 118 61 5 0 0 0 - - -, f 5;
#X obj 313 18 unpack f1 f2 f3 f4 f5 f6 f7 f8;
#X obj 295 138 sel 1 2 3 4 5 6 7 8;
#X obj 383 267 f;
#X obj 413 195 f;
#X obj 442 195 f;
#X obj 472 195 f;
#X obj 502 195 f;
#X obj 126 118 counter 1 8;
#X floatatom 383 305 5 0 0 0 - - -, f 5;
#X msg 184 -57 1 2 3 4 5 6 7 8;
#X msg 314 -54 11 22 33 44 55 66 77 88;
#X obj 611 289 osc~;
#X msg 528 -20 111 222 333 444 555 666 777 888;
#X msg 513 -52 0 111 222 333 444 555 666 777;
#X obj 1585 267 s test-genome;
#X obj 1585 233 bng 20 250 50 0 empty empty empty 17 7 0 10 -262144
-1 -1;
#X text 1116 143 TEMPO;
#X obj 1590 124 adsr;
#X text 1120 248 8: HOW MANY NOTES ALLOWED ( 128 / 16 \, 32 \, 48 \,
... \, 128);
#X text 1120 192 1: CLOCK DIVIDER RANGE;
#X text 1117 169 1: CLOCK DIVIDER ON/OFF;
#X text 1121 301 8: SELECT SCALE;
#X text 1116 363 2: FILTER FREQ & Q;
#X text 1120 273 1: LENGTH OF LOOP;
#X text 1119 215 8: NOTES (128 / 16 \; TO ARRAY?);
#X text 1746 -526 1 = 65 \; 2 = 66 \; 3 = 67;
#X text 1645 -527 0 = 64 \; 1 = 65 \; 2 = 66;
#X msg 972 -53 set \$1 \$2 \$3 \$1 \$4 \$3;
#X msg 974 24 1 2 3 1 4 3;
#X msg 946 -122 1 2 3 4;
#X msg 1442 -102 \; GENOM_WAVETABLE 0 \$65 \$2 \$3 \$4 \$5 \$6 \$7
\$8 \$9 \$10 \$11 \$12 \$13 \$14 \$15 \$16 \$17 \$18 \$19 \$20 \$21
\$22 \$23 \$24 \$25 \$26 \$27 \$28 \$29 \$30 \$31 \$32 \$33 \$34 \$35
\$36 \$37 \$38 \$39 \$40 \$41 \$42 \$43 \$44 \$45 \$46 \$47 \$48 \$49
\$50 \$51 \$52 \$53 \$54 \$55 \$56 \$57 \$58 \$59 \$60 \$61 \$62 \$63
\$64 \$65 \$2 \$3;
#X text 1118 329 2: ATTACK - DECAY;
#X text 666 66 ATTACK;
#X obj 859 93 * 4;
#X floatatom 727 69 5 0 0 0 - - -, f 5;
#X obj 857 138 delay;
#X obj 808 280 *~;
#X obj 815 218 line~;
#X obj 816 29 t b b b;
#X msg 843 -15 bang;
#X obj 774 151 pack 1 f;
#X msg 904 121 0;
#X obj 949 121 * 4;
#X floatatom 952 81 5 0 0 0 - - -, f 5;
#X obj 865 176 pack 0 f;
#X text 1007 87 DECAY;
#X obj 704 -162 tabosc4~ GENOM_WAVETABLE;
#X floatatom 758 -226 5 0 0 0 - - -, f 5;
#X obj 1083 -384 metro 512;
#X obj 1106 -452 * 8;
#X obj 1100 -505 r;
#X connect 2 0 3 0;
#X connect 3 0 50 0;
#X connect 4 0 3 0;
#X connect 5 0 12 0;
#X connect 6 0 4 0;
#X connect 7 0 9 0;
#X connect 7 1 4 0;
#X connect 8 0 7 0;
#X connect 9 0 5 0;
#X connect 9 2 3 0;
#X connect 11 0 2 0;
#X connect 12 0 11 0;
#X connect 13 0 22 0;
#X connect 14 0 22 0;
#X connect 15 0 22 0;
#X connect 16 0 22 0;
#X connect 17 0 27 0;
#X connect 18 0 17 0;
#X connect 19 0 17 1;
#X connect 20 0 13 1;
#X connect 20 1 14 1;
#X connect 20 2 15 1;
#X connect 20 3 16 1;
#X connect 20 4 23 1;
#X connect 20 5 24 1;
#X connect 20 6 25 1;
#X connect 20 7 26 1;
#X connect 21 0 13 0;
#X connect 21 1 14 0;
#X connect 21 2 15 0;
#X connect 21 3 16 0;
#X connect 21 4 23 0;
#X connect 21 5 24 0;
#X connect 21 6 25 0;
#X connect 21 7 26 0;
#X connect 22 0 28 0;
#X connect 22 0 31 0;
#X connect 23 0 22 0;
#X connect 24 0 22 0;
#X connect 25 0 22 0;
#X connect 26 0 22 0;
#X connect 27 0 21 0;
#X connect 29 0 20 0;
#X connect 30 0 20 0;
#X connect 32 0 20 0;
#X connect 33 0 20 0;
#X connect 35 0 34 0;
#X connect 47 0 48 0;
#X connect 49 0 47 0;
#X connect 53 0 55 1;
#X connect 53 0 60 1;
#X connect 54 0 53 0;
#X connect 55 0 64 0;
#X connect 57 0 56 1;
#X connect 58 0 55 0;
#X connect 58 1 60 0;
#X connect 58 2 61 0;
#X connect 59 0 58 0;
#X connect 60 0 57 0;
#X connect 61 0 57 0;
#X connect 62 0 64 1;
#X connect 63 0 62 0;
#X connect 64 0 57 1;
#X connect 67 0 66 0;
#X connect 69 0 68 1;
#X connect 70 0 69 0;
#X restore 1432 307 pd WAVETABLE;
#X text 1433 278 GENOM 24 - 91 + ...;
#N canvas 0 22 1280 651 KARPLUS-STRONG 1;
#X obj 884 488 del;
#X msg 851 514 1;
#X msg 884 514 0;
#X obj 758 534 *~;
#X obj 926 488 vd~ buffer 100;
#X obj 758 660 delwrite~ buffer 1000;
#X obj 926 531 *~ 0.5;
#X obj 980 530 z~ 1;
#X obj 981 557 *~ 0.5;
#X obj 927 584 +~;
#X obj 902 444 expr 1000 / $f1;
#X obj 902 400 mtof;
#X obj 925 668 vcf~;
#X floatatom 1276 649 5 0 0 0 - - -, f 5;
#X floatatom 1167 630 5 0 0 0 - - -, f 5;
#X obj 992 649 sig~;
#X obj 924 699 vcf~;
#X obj 923 732 vcf~;
#X obj 1045 600 / 127.8;
#X obj 902 369 line;
#X obj 902 331 pack f f;
#X obj 934 296 f;
#X obj 710 613 f;
#X obj 902 266 t b f;
#X floatatom 782 206 5 0 0 0 - - -, f 5;
#X obj 689 133 tgl 20 0 empty empty empty 17 7 0 10 -262144 -1 -1 1
1;
#X obj 757 468 r~ pureOut;
#X obj 369 564 / 1.67105;
#X obj 369 593 int;
#X text 1278 19 FLT Q;
#X text 1175 35 FLT FREQ;
#X text 1056 34 LENGTH ( FB );
#X obj 924 839 dac~;
#X obj 963 788 tgl 20 0 empty empty empty 17 7 0 10 -262144 -1 -1 0
4;
#X obj 689 248 metro 1024;
#X obj 1353 807 *~;
#X obj 1353 840 throw~ VerbSend;
#X obj 1371 733 / 128;
#X floatatom 1371 702 5 0 100 0 - - -, f 5;
#X obj 851 468 b;
#X obj 926 620 *~ 0.99;
#X obj 782 47 r Genom24;
#X obj 902 59 r Genom25;
#X obj 1045 74 r Genom26;
#X obj 1167 67 r Genom27;
#X obj 1276 47 r Genom28;
#X obj 1371 53 r Genom29;
#X obj -7 473 r Genom30;
#X floatatom 782 110 5 0 0 0 - - -, f 5;
#X obj 782 162 * 20;
#X obj 189 -7 tgl 20 0 empty empty empty 17 7 0 10 -262144 -1 -1 0
1;
#X floatatom 259 -9 5 0 0 0 - - -, f 5;
#X msg 117 48 updown;
#X obj 199 61 counter 0 64;
#X obj 199 25 metro 155;
#X obj 1662 241 s test-genome;
#X obj 1662 207 bng 20 250 50 0 empty empty empty 17 7 0 10 -262144
-1 -1;
#X text 907 33 PORTAMENTO =N OFF;
#X floatatom 902 129 5 0 0 0 - - -, f 5;
#X obj 902 164 moses 64;
#X msg 902 194 0;
#X obj 955 236 f;
#X obj 955 192 b;
#X text 792 21 TEMPO;
#X floatatom 1045 127 5 0 0 0 - - -, f 5;
#X floatatom 1167 97 5 0 0 0 - - -, f 5;
#X obj 1276 123 / 16;
#X floatatom 1276 80 5 0 0 0 - - -, f 5;
#X obj 1167 122 moses 1;
#X text 1372 26 REVERB SEND;
#X obj 618 19 loadbang;
#X msg 689 60 1;
#X obj 74 473 r Genom31;
#X obj 158 474 r Genom32;
#X obj 239 474 r Genom33;
#X obj 325 470 r Genom34;
#X obj 406 471 r Genom35;
#X obj 490 472 r Genom36;
#X obj 571 472 r Genom37;
#X text 522 442 NOTEN 1 - 8;
#X obj 199 103 * 26.7;
#X obj -25 501 f;
#X obj 231 310 cup;
#X obj 231 354 mod 8;
#X obj 285 217 r Genom38;
#X obj 285 273 / 16;
#X floatatom 285 249 5 0 0 0 - - -, f 5;
#X obj 285 334 int;
#X obj 231 387 sel 0 1 2 3 4 5 6 7;
#X obj 56 504 f;
#X obj 140 505 f;
#X obj 221 507 f;
#X obj 307 509 f;
#X obj 388 508 f;
#X obj 472 505 f;
#X obj 553 505 f;
#X obj 689 290 t b b b;
#X obj 403 897 delwrite~ KPS 1280;
#X obj 395 820 vd~ KPS;
#X floatatom 400 723 5 0 0 0 - - -, f 5;
#X obj 398 761 pack f 100;
#X obj 396 790 line~;
#X obj 403 861 *~;
#X floatatom 494 759 5 0 0 0 - - -, f 5;
#X obj 501 791 sig~;
#X obj 510 669 r Genom38;
#X obj 396 665 r Genom39;
#X floatatom 503 696 5 0 0 0 - - -, f 5;
#X obj 500 721 / 129;
#X obj 396 693 * 10;
#X obj 617 674 r Genom40;
#X text 522 642 FB;
#X text 419 644 TIME;
#X obj 618 705 moses 64;
#X msg 618 733 0;
#X msg 671 732 1;
#X obj 618 790 change;
#X text 629 646 DELAY ON OFF;
#X obj 600 826 *~;
#X obj 340 898 dac~;
#X obj 924 788 *~ 1;
#X obj 1167 154 * 64;
#X floatatom 618 336 5 0 0 0 - - -, f 5;
#X msg 618 261 666;
#X obj 618 372 osc~;
#X floatatom 1588 314 5 0 0 0 - - -, f 5;
#X obj 1603 356 / 2;
#X obj 1607 440 + 64;
#X floatatom 1604 514 5 0 0 0 - - -, f 5;
#X obj 1045 167 / 2;
#X obj 1045 216 + 64;
#X connect 0 0 2 0;
#X connect 1 0 3 1;
#X connect 2 0 3 1;
#X connect 3 0 5 0;
#X connect 4 0 6 0;
#X connect 4 0 7 0;
#X connect 6 0 9 0;
#X connect 7 0 8 0;
#X connect 8 0 9 1;
#X connect 9 0 40 0;
#X connect 10 0 0 1;
#X connect 10 0 4 0;
#X connect 11 0 10 0;
#X connect 11 0 124 0;
#X connect 12 0 16 0;
#X connect 13 0 12 2;
#X connect 13 0 16 2;
#X connect 13 0 17 2;
#X connect 14 0 15 0;
#X connect 15 0 12 1;
#X connect 15 0 16 1;
#X connect 15 0 17 1;
#X connect 16 0 17 0;
#X connect 17 0 120 0;
#X connect 17 1 120 0;
#X connect 18 0 40 1;
#X connect 19 0 11 0;
#X connect 20 0 19 0;
#X connect 21 0 20 1;
#X connect 22 0 20 0;
#X connect 23 0 20 0;
#X connect 23 1 21 0;
#X connect 24 0 34 1;
#X connect 24 0 61 1;
#X connect 25 0 34 0;
#X connect 26 0 3 0;
#X connect 27 0 28 0;
#X connect 28 0 22 1;
#X connect 33 0 120 1;
#X connect 34 0 96 0;
#X connect 35 0 36 0;
#X connect 37 0 35 1;
#X connect 38 0 37 0;
#X connect 39 0 1 0;
#X connect 39 0 0 0;
#X connect 40 0 5 0;
#X connect 40 0 12 0;
#X connect 41 0 48 0;
#X connect 42 0 58 0;
#X connect 43 0 64 0;
#X connect 44 0 65 0;
#X connect 45 0 67 0;
#X connect 46 0 38 0;
#X connect 47 0 81 1;
#X connect 48 0 49 0;
#X connect 49 0 24 0;
#X connect 50 0 54 0;
#X connect 51 0 54 1;
#X connect 52 0 53 0;
#X connect 53 0 80 0;
#X connect 54 0 53 0;
#X connect 56 0 55 0;
#X connect 58 0 59 0;
#X connect 59 0 60 0;
#X connect 59 1 62 0;
#X connect 60 0 23 0;
#X connect 61 0 23 0;
#X connect 62 0 61 0;
#X connect 64 0 129 0;
#X connect 65 0 68 0;
#X connect 66 0 13 0;
#X connect 67 0 66 0;
#X connect 68 1 121 0;
#X connect 70 0 71 0;
#X connect 70 0 123 0;
#X connect 71 0 25 0;
#X connect 72 0 89 1;
#X connect 73 0 90 1;
#X connect 74 0 91 1;
#X connect 75 0 92 1;
#X connect 76 0 93 1;
#X connect 77 0 94 1;
#X connect 78 0 95 1;
#X connect 80 0 24 0;
#X connect 81 0 27 0;
#X connect 82 0 83 0;
#X connect 83 0 88 0;
#X connect 84 0 86 0;
#X connect 85 0 87 0;
#X connect 86 0 85 0;
#X connect 87 0 83 1;
#X connect 88 0 81 0;
#X connect 88 1 89 0;
#X connect 88 2 90 0;
#X connect 88 3 91 0;
#X connect 88 4 92 0;
#X connect 88 5 93 0;
#X connect 88 6 94 0;
#X connect 88 7 95 0;
#X connect 89 0 27 0;
#X connect 90 0 27 0;
#X connect 91 0 27 0;
#X connect 92 0 27 0;
#X connect 93 0 27 0;
#X connect 94 0 27 0;
#X connect 95 0 27 0;
#X connect 96 0 39 0;
#X connect 96 1 22 0;
#X connect 96 2 82 0;
#X connect 98 0 102 0;
#X connect 98 0 119 0;
#X connect 98 0 119 1;
#X connect 99 0 100 0;
#X connect 100 0 101 0;
#X connect 101 0 98 0;
#X connect 102 0 97 0;
#X connect 103 0 104 0;
#X connect 104 0 102 1;
#X connect 105 0 107 0;
#X connect 106 0 109 0;
#X connect 107 0 108 0;
#X connect 108 0 103 0;
#X connect 109 0 99 0;
#X connect 113 0 114 0;
#X connect 113 1 115 0;
#X connect 114 0 116 0;
#X connect 115 0 116 0;
#X connect 116 0 118 1;
#X connect 118 0 97 0;
#X connect 120 0 32 1;
#X connect 120 0 32 0;
#X connect 120 0 35 0;
#X connect 120 0 118 0;
#X connect 121 0 14 0;
#X connect 122 0 124 0;
#X connect 123 0 122 0;
#X connect 124 0 3 0;
#X connect 125 0 126 0;
#X connect 126 0 127 0;
#X connect 127 0 128 0;
#X connect 129 0 130 0;
#X connect 130 0 18 0;
#X restore 817 385 pd KARPLUS-STRONG;
#X text 843 361 GENOM 24 -;
#X connect 4 0 3 0;
