#N canvas 0 0 1920 997 12;
#N canvas 0 0 1920 980 GENOM-INPUT 0;
#X obj 666 174 netreceive 3000;
#X floatatom 352 444 5 0 0 0 - - -;
#X floatatom 393 445 5 0 0 0 - - -;
#X floatatom 437 441 5 0 0 0 - - -;
#X floatatom 482 443 5 0 0 0 - - -;
#X floatatom 530 444 5 0 0 0 - - -;
#X floatatom 808 593 5 0 0 0 - - -;
#X floatatom 855 596 5 0 0 0 - - -;
#X floatatom 896 593 5 0 0 0 - - -;
#X floatatom 939 591 5 0 0 0 - - -;
#X floatatom 986 594 5 0 0 0 - - -;
#X obj 345 496 s Genom1;
#X obj 387 473 s Genom2;
#X obj 425 493 s Genom3;
#X obj 482 470 s Genom4;
#X obj 536 495 s Genom5;
#X obj 746 657 s Genom6;
#X obj 825 652 s Genom7;
#X obj 900 652 s Genom8;
#X obj 974 653 s Genom9;
#X obj 1049 653 s Genom10;
#X obj 701 252 s FullGenome;
#X obj 666 356 unpack f1 f2 f3 f4 f54 f6 f7 f8 f9 f10 f11 f12 f13 f14
f15 f16 f17 f18 f19 f20 f21 f22 f23 f24 f25 f26 f27 f28 f29 f30;
#X floatatom 1046 590 5 0 0 0 - - -;
#X floatatom 1087 591 5 0 0 0 - - -;
#X floatatom 1131 587 5 0 0 0 - - -;
#X floatatom 1176 589 5 0 0 0 - - -;
#X floatatom 1224 590 5 0 0 0 - - -;
#X floatatom 1262 592 5 0 0 0 - - -;
#X floatatom 1309 595 5 0 0 0 - - -;
#X floatatom 1350 592 5 0 0 0 - - -;
#X floatatom 1393 590 5 0 0 0 - - -;
#X floatatom 1440 593 5 0 0 0 - - -;
#X obj 804 725 s Genom11;
#X obj 875 727 s Genom12;
#X obj 954 722 s Genom13;
#X obj 1029 722 s Genom14;
#X obj 1110 727 s Genom15;
#X obj 1185 727 s Genom16;
#X obj 1266 724 s Genom17;
#X obj 1339 722 s Genom18;
#X obj 1413 723 s Genom19;
#X obj 1484 723 s Genom20;
#X floatatom 1499 590 5 0 0 0 - - -;
#X floatatom 1540 591 5 0 0 0 - - -;
#X floatatom 1584 587 5 0 0 0 - - -;
#X floatatom 1629 589 5 0 0 0 - - -;
#X floatatom 1677 590 5 0 0 0 - - -;
#X floatatom 1715 592 5 0 0 0 - - -;
#X floatatom 1762 595 5 0 0 0 - - -;
#X floatatom 1803 592 5 0 0 0 - - -;
#X floatatom 1846 590 5 0 0 0 - - -;
#X floatatom 1893 593 5 0 0 0 - - -;
#X obj 1554 713 s Genom21;
#X obj 1627 713 s Genom22;
#X obj 1704 710 s Genom23;
#X obj 1778 710 s Genom24;
#X obj 1861 715 s Genom25;
#X obj 1935 715 s Genom26;
#X obj 2014 710 s Genom27;
#X obj 2089 710 s Genom28;
#X obj 2163 711 s Genom29;
#X obj 2238 711 s Genom30;
#X msg 942 160 add2 \$1;
#X msg 942 216 57 76 112 115 33 109 90 50 110 107 89 32 40 85 60 96
33 43 44 39 55 57 43 83 19 123 20 16 98 117;
#X msg 868 126 set;
#X obj 942 122 random 128;
#X obj 868 81 loadbang;
#X obj 942 81 kalashnikov 30;
#X obj 836 38 t b b;
#X obj 836 8 bng 20 250 50 0 empty empty empty 17 7 0 10 -262144 -1
-1;
#X msg 136 234 set \$1 \$2 \$3 \$4 \$5 \$6 \$7 \$8 \$9 \$10 \$11 \$12
\$13 \$14 \$15 \$16 \$17 \$18 \$19 \$20 \$21 \$22 \$23 \$24 \$25 \$26
\$27 \$28 \$29 \$30;
#X msg 136 302;
#X text 104 397 SIRR-DELAY:;
#X text 108 544 DELAY TIME (0-1280);
#X text 109 526 DELAY FEEDBACK (0-1);
#X text 108 506 HIGHPASS-FREQUENCY (0-12800);
#X text 109 486 FILTERED SIGNAL VOLUME (0-1);
#X text 108 568 DELAYED SIGNAL VOLUME (0-1);
#X connect 0 0 21 0;
#X connect 0 0 22 0;
#X connect 0 0 71 0;
#X connect 1 0 11 0;
#X connect 2 0 12 0;
#X connect 3 0 13 0;
#X connect 4 0 14 0;
#X connect 5 0 15 0;
#X connect 6 0 16 0;
#X connect 7 0 17 0;
#X connect 8 0 18 0;
#X connect 9 0 19 0;
#X connect 10 0 20 0;
#X connect 22 0 1 0;
#X connect 22 1 2 0;
#X connect 22 2 3 0;
#X connect 22 3 4 0;
#X connect 22 4 5 0;
#X connect 22 5 6 0;
#X connect 22 6 7 0;
#X connect 22 7 8 0;
#X connect 22 8 9 0;
#X connect 22 9 10 0;
#X connect 22 10 23 0;
#X connect 22 11 24 0;
#X connect 22 12 25 0;
#X connect 22 13 26 0;
#X connect 22 14 27 0;
#X connect 22 15 28 0;
#X connect 22 16 29 0;
#X connect 22 17 30 0;
#X connect 22 18 31 0;
#X connect 22 19 32 0;
#X connect 22 20 43 0;
#X connect 22 21 44 0;
#X connect 22 22 45 0;
#X connect 22 23 46 0;
#X connect 22 24 47 0;
#X connect 22 25 48 0;
#X connect 22 26 49 0;
#X connect 22 27 50 0;
#X connect 22 28 51 0;
#X connect 22 29 52 0;
#X connect 23 0 33 0;
#X connect 24 0 34 0;
#X connect 25 0 35 0;
#X connect 26 0 36 0;
#X connect 27 0 37 0;
#X connect 28 0 38 0;
#X connect 29 0 39 0;
#X connect 30 0 40 0;
#X connect 31 0 41 0;
#X connect 32 0 42 0;
#X connect 43 0 53 0;
#X connect 44 0 54 0;
#X connect 45 0 55 0;
#X connect 46 0 56 0;
#X connect 47 0 57 0;
#X connect 48 0 58 0;
#X connect 49 0 59 0;
#X connect 50 0 60 0;
#X connect 51 0 61 0;
#X connect 52 0 62 0;
#X connect 63 0 64 0;
#X connect 64 0 21 0;
#X connect 64 0 22 0;
#X connect 65 0 64 0;
#X connect 66 0 63 0;
#X connect 67 0 65 0;
#X connect 68 0 66 0;
#X connect 68 2 64 0;
#X connect 69 0 68 0;
#X connect 69 1 65 0;
#X connect 70 0 69 0;
#X connect 71 0 72 0;
#X restore 489 125 pd GENOM-INPUT;
#N canvas 0 0 1920 997 AUDIO-INPUT 0;
#N canvas 0 50 1916 997 (subpatch) 0;
#X array \$0-ARRAY 887456 float 2;
#X coords 0 1 887456 -1 200 140 1;
#X restore 962 67 graph;
#X obj 633 616 dac~;
#X obj 635 351 bng 20 250 50 0 empty empty empty 17 7 0 10 -262144
-1 -1;
#X obj 635 421 tabplay~ \$0-ARRAY;
#X floatatom 635 180 10 0 0 0 - - -;
#X obj 658 95 bng 20 250 50 0 empty empty empty 17 7 0 10 -262144 -1
-1;
#N canvas 640 49 1280 651 load 0;
#X obj 111 26 inlet;
#X obj 111 349 soundfiler;
#X obj 111 90 openpanel;
#X obj 111 136 t b a;
#X msg 111 113 set \$1;
#X obj 195 83 f \$0;
#X obj 111 63 t b b;
#X obj 111 321 list trim;
#X obj 111 294 list;
#X obj 59 435 outlet;
#X obj 41 142 inlet;
#X msg 195 103 \$1-ARRAY;
#X obj 111 236 list prepend read -resize;
#X obj 111 436 s \$0-ARRAY;
#X obj 111 377 bang;
#X msg 111 405 normalize;
#X msg 111 162 D:/AURAL/pdptch/- ARTIFICIAL_LIFE/palestrina.wav;
#X connect 0 0 6 0;
#X connect 1 0 9 0;
#X connect 1 0 14 0;
#X connect 2 0 4 0;
#X connect 3 0 16 0;
#X connect 3 1 16 0;
#X connect 4 0 3 0;
#X connect 5 0 11 0;
#X connect 6 0 2 0;
#X connect 6 1 5 0;
#X connect 7 0 1 0;
#X connect 8 0 7 0;
#X connect 10 0 16 0;
#X connect 11 0 8 1;
#X connect 12 0 8 0;
#X connect 14 0 15 0;
#X connect 15 0 13 0;
#X connect 16 0 12 0;
#X restore 635 153 pd load;
#X obj 749 375 spigot;
#X obj 788 297 tgl 20 0 empty empty empty 17 7 0 10 -262144 -1 -1 1
1;
#X obj 634 581 *~;
#X obj 659 449 s~ pureOut;
#X msg 569 490 0;
#X msg 588 381 stop;
#X obj 517 561 * 0.01;
#X text 817 298 LOOP;
#X text 643 331 PLAY;
#X obj 498 490 vsl 30 60 0 100 0 0 empty empty empty 0 -9 0 10 -262144
-1 -1 0 1;
#X text 653 74 LOAD SOUND (WAV only);
#X obj 788 230 loadbang;
#X msg 788 270 1;
#X msg 909 290 \; pd dsp \$1;
#X obj 321 300 soundfiler;
#X obj 346 191 f \$0;
#X obj 321 272 list trim;
#X obj 321 245 list;
#X msg 346 211 \$1-ARRAY;
#X obj 321 155 list prepend read -resize;
#X obj 321 387 s \$0-ARRAY;
#X obj 321 328 bang;
#X msg 321 356 normalize;
#X msg 321 113 ../palestrina.wav;
#X obj 321 77 bng 15 250 50 0 empty empty empty 17 7 0 10 -262144 -1
-1;
#X obj 321 36 loadbang;
#X connect 2 0 3 0;
#X connect 3 0 9 0;
#X connect 3 0 10 0;
#X connect 3 1 7 0;
#X connect 4 0 2 0;
#X connect 5 0 6 1;
#X connect 6 0 4 0;
#X connect 7 0 2 0;
#X connect 8 0 7 1;
#X connect 9 0 1 0;
#X connect 9 0 1 1;
#X connect 11 0 9 1;
#X connect 12 0 3 0;
#X connect 13 0 9 1;
#X connect 16 0 13 0;
#X connect 18 0 19 0;
#X connect 19 0 8 0;
#X connect 19 0 20 0;
#X connect 21 0 28 0;
#X connect 22 0 25 0;
#X connect 23 0 21 0;
#X connect 24 0 23 0;
#X connect 25 0 24 1;
#X connect 26 0 24 0;
#X connect 28 0 29 0;
#X connect 29 0 27 0;
#X connect 29 0 2 0;
#X connect 30 0 26 0;
#X connect 31 0 22 0;
#X connect 31 0 30 0;
#X connect 32 0 31 0;
#X restore 721 125 pd AUDIO-INPUT;
#N canvas 0 0 1916 997 SIRR-DELAY 0;
#X obj 537 520 hip~;
#X floatatom 664 491 5 0 0 0 - - hip_del;
#X obj 575 487 r hip_del;
#X obj 536 553 hip~;
#X obj 574 520 r hip_del;
#X obj 536 617 hip~;
#X obj 574 586 r hip_del;
#X obj 536 408 r~ pureOut;
#X obj 422 671 dac~;
#X obj 423 636 *~;
#X floatatom 441 574 5 0 100 0 - - -;
#X floatatom 852 542 5 0 0 0 - - -;
#X obj 852 567 pack f 55;
#X obj 852 594 line~;
#X obj 724 697 *~;
#X floatatom 742 643 5 0 100 0 - - -;
#X obj 978 747 dac~;
#X obj 979 712 *~;
#X floatatom 997 672 5 0 100 0 - - -;
#X obj 536 713 delwrite~ SIRR 1280;
#X obj 853 629 vd~ SIRR 1280;
#X obj 536 585 hip~;
#X obj 574 552 r hip_del;
#X text 653 514 0 12800;
#X obj 628 119 unpack f1 f2 f3 f4 f5;
#X floatatom 664 231 5 0 0 0 - - -;
#X floatatom 744 229 5 0 0 0 - - -;
#X floatatom 851 229 5 0 0 0 - - -;
#X floatatom 997 226 5 0 0 0 - - -;
#X floatatom 579 234 5 0 0 0 - - -;
#X obj 579 264 / 128;
#X obj 664 270 * 100;
#X obj 851 270 * 10;
#X obj 997 262 / 128;
#X obj 744 268 / 128;
#X obj 537 452 *~;
#X obj 588 432 tgl 20 0 empty empty empty 17 7 0 10 -262144 -1 -1 1
1;
#X obj 628 77 r FullGenome;
#X text 863 519 min 0 \, max 1280;
#X text 637 643 min 0 \, max 1!!!;
#X obj 334 368 loadbang;
#X msg 334 412 1;
#X text 194 193 SIRR-DELAY:;
#X text 202 278 DELAY TIME (0-1280);
#X text 203 260 DELAY FEEDBACK (0-1);
#X text 202 240 HIGHPASS-FREQUENCY (0-12800);
#X text 203 220 FILTERED SIGNAL VOLUME (0-1);
#X text 202 302 DELAYED SIGNAL VOLUME (0-1);
#X obj 579 193 line;
#X obj 579 154 pack f 100;
#X obj 664 193 line;
#X obj 664 154 pack f 100;
#X obj 744 193 line;
#X obj 744 154 pack f 100;
#X obj 851 192 line;
#X obj 851 153 pack f 100;
#X obj 997 191 line;
#X obj 997 152 pack f 100;
#X floatatom 983 95 5 0 0 0 - - -;
#X connect 0 0 3 0;
#X connect 2 0 0 1;
#X connect 3 0 21 0;
#X connect 4 0 3 1;
#X connect 5 0 9 0;
#X connect 5 0 19 0;
#X connect 6 0 5 1;
#X connect 7 0 35 0;
#X connect 9 0 8 0;
#X connect 9 0 8 1;
#X connect 10 0 9 1;
#X connect 11 0 12 0;
#X connect 12 0 13 0;
#X connect 13 0 20 0;
#X connect 14 0 19 0;
#X connect 15 0 14 1;
#X connect 17 0 16 0;
#X connect 17 0 16 1;
#X connect 18 0 17 1;
#X connect 20 0 14 0;
#X connect 20 0 17 0;
#X connect 21 0 5 0;
#X connect 22 0 21 1;
#X connect 24 0 49 0;
#X connect 24 1 51 0;
#X connect 24 2 53 0;
#X connect 24 3 55 0;
#X connect 24 4 57 0;
#X connect 25 0 31 0;
#X connect 26 0 34 0;
#X connect 27 0 32 0;
#X connect 28 0 33 0;
#X connect 29 0 30 0;
#X connect 30 0 10 0;
#X connect 31 0 1 0;
#X connect 32 0 11 0;
#X connect 33 0 18 0;
#X connect 34 0 15 0;
#X connect 35 0 0 0;
#X connect 36 0 35 1;
#X connect 37 0 24 0;
#X connect 40 0 41 0;
#X connect 41 0 36 0;
#X connect 48 0 29 0;
#X connect 49 0 48 0;
#X connect 50 0 25 0;
#X connect 51 0 50 0;
#X connect 52 0 26 0;
#X connect 53 0 52 0;
#X connect 54 0 27 0;
#X connect 55 0 54 0;
#X connect 56 0 28 0;
#X connect 57 0 56 0;
#X connect 58 0 57 1;
#X connect 58 0 55 1;
#X connect 58 0 53 1;
#X connect 58 0 51 1;
#X connect 58 0 49 1;
#X restore 500 398 pd SIRR-DELAY;
#X text 505 373 GENOM 1 - 5;
#N canvas 0 0 1920 997 BLINZELN 0;
#X obj 122 369 r~ pureOut;
#X obj 615 560 delwrite~ blinzeln 2000;
#X floatatom 915 293 5 0 0 0 - - -;
#X obj 915 324 pack f 44;
#X obj 915 354 line~;
#X obj 689 770 dac~;
#X obj 690 668 *~;
#X obj 724 669 * 0.01;
#X floatatom 724 642 5 0 100 0 - - -;
#X obj 774 517 *~;
#X obj 808 518 * 0.01;
#X floatatom 808 483 5 0 100 0 - - -;
#X obj 614 484 *~;
#X msg 700 179 0;
#X floatatom 760 109 5 0 0 0 - - -;
#X obj 700 152 delay 128;
#X obj 1101 509 *~;
#X obj 1136 510 * 0.01;
#X floatatom 1136 483 5 0 100 0 - - -;
#X obj 1100 556 throw~ VerbSend;
#X floatatom 614 58 5 0 0 0 - - -;
#X obj 532 35 tgl 20 0 empty empty empty 17 7 0 10 -262144 -1 -1 1
1;
#X obj 566 98 metro 900;
#X obj 378 141 cup;
#X text 1074 37 8;
#X msg 588 132 bang;
#X floatatom 226 320 5 0 0 0 - - -;
#X floatatom 355 342 5 0 0 0 - - -;
#X obj 378 202 tabread 30POINTGENOME;
#X obj 378 170 mod 30;
#X obj 363 232 / 8;
#X text 621 29 2;
#X text 766 80 3;
#X text 819 459 4;
#X text 772 642 5;
#X text 1189 483 7;
#X text 1200 55 9;
#X obj 454 15 loadbang;
#X msg 454 53 1;
#X obj 1264 841 counter 0 128;
#X obj 1171 756 metro 300;
#X obj 1171 733 tgl 15 0 empty empty empty 0 -6 0 8 -262144 -1 -1 0
1;
#X msg 1064 756 updown;
#X floatatom 1221 723 5 0 0 0 - - -;
#X text 819 645 0 - 10;
#X obj 214 72 tgl 20 0 empty empty empty 17 7 0 10 -262144 -1 -1 1
1;
#X obj 248 135 metro 900;
#X floatatom 321 110 5 0 0 0 - - -;
#X msg 810 107 1 - 512;
#X msg 771 28 1 - 12800;
#X obj 226 270 * 2;
#X msg 280 294 32 256;
#X msg 376 295 2 - 16;
#X text 917 265 6;
#X obj 1239 237 line;
#X msg 1292 183 0;
#X obj 1239 134 t b b;
#X obj 1253 88 bng 24 250 50 0 empty empty empty 17 7 0 10 -262144
-1 -1;
#X obj 1069 66 tgl 20 0 empty empty empty 17 7 0 10 -262144 -1 -1 1
1;
#X floatatom 1146 52 5 0 0 0 - - -;
#X msg 1239 182 4 666;
#X obj 1292 257 sel 4;
#X obj 1069 114 metro 5120;
#X msg 1117 12 1 - 12800;
#X msg 666 179 3;
#X obj 329 399 vcf~;
#X obj 1442 471 * 512;
#X floatatom 1446 388 5 0 0 0 - - -;
#X floatatom 1450 531 5 0 0 0 - - -;
#X obj 914 385 vd~ blinzeln 3072;
#X msg 961 266 512 - 3072;
#X obj 811 257 sig~;
#X msg 1271 780 min \$1;
#X msg 1327 780 max \$1;
#X floatatom 1271 759 5 0 0 0 - - -;
#X floatatom 1327 759 5 0 0 0 - - -;
#X text 537 10 1;
#X text 278 264 10;
#X text 364 206 11;
#X text 1280 729 12;
#X text 1344 725 13;
#X text 1169 706 14;
#X floatatom 1255 907 5 0 0 0 - - -;
#X obj 1304 295 del 5;
#X floatatom 571 307 5 0 0 0 - - -;
#X obj 1681 307 cup;
#X obj 1681 368 tabread 30POINTGENOME;
#X obj 1681 336 mod 30;
#X obj 1517 238 tgl 20 0 empty empty empty 17 7 0 10 -262144 -1 -1
1 1;
#X floatatom 1624 276 5 0 0 0 - - -;
#X floatatom 1545 430 5 0 0 0 - - -;
#X obj 1551 301 metro 666;
#X obj 1686 522 pack f f;
#X obj 1710 460 t b f;
#X obj 1600 548 line;
#X obj 1307 440 *;
#X obj 1367 364 t b f;
#X obj 1442 269 sel 0;
#X msg 1400 321 1;
#X floatatom 1282 387 5 0 0 0 - - -;
#X floatatom 496 675 5 0 0 0 - - -;
#X floatatom 625 697 5 0 0 0 - - -;
#X obj 674 717 vcf~;
#X connect 0 0 65 0;
#X connect 2 0 3 0;
#X connect 3 0 4 0;
#X connect 4 0 69 0;
#X connect 6 0 102 0;
#X connect 7 0 6 1;
#X connect 8 0 7 0;
#X connect 9 0 1 0;
#X connect 10 0 9 1;
#X connect 11 0 10 0;
#X connect 12 0 1 0;
#X connect 12 0 6 0;
#X connect 12 0 16 0;
#X connect 13 0 71 0;
#X connect 13 0 84 0;
#X connect 14 0 15 1;
#X connect 15 0 13 0;
#X connect 16 0 19 0;
#X connect 17 0 16 1;
#X connect 18 0 17 0;
#X connect 20 0 22 1;
#X connect 21 0 22 0;
#X connect 22 0 25 0;
#X connect 23 0 29 0;
#X connect 25 0 15 0;
#X connect 25 0 64 0;
#X connect 26 0 65 1;
#X connect 27 0 65 2;
#X connect 29 0 28 0;
#X connect 30 0 27 0;
#X connect 37 0 38 0;
#X connect 38 0 22 0;
#X connect 39 0 82 0;
#X connect 40 0 39 0;
#X connect 41 0 40 0;
#X connect 42 0 39 0;
#X connect 43 0 40 1;
#X connect 45 0 46 0;
#X connect 46 0 23 0;
#X connect 47 0 46 1;
#X connect 50 0 26 0;
#X connect 54 0 61 0;
#X connect 54 0 71 0;
#X connect 55 0 54 0;
#X connect 56 0 60 0;
#X connect 56 1 55 0;
#X connect 57 0 56 0;
#X connect 58 0 62 0;
#X connect 59 0 62 1;
#X connect 60 0 54 0;
#X connect 61 0 83 0;
#X connect 62 0 56 0;
#X connect 64 0 71 0;
#X connect 64 0 84 0;
#X connect 65 0 12 0;
#X connect 65 1 12 0;
#X connect 66 0 68 0;
#X connect 67 0 66 0;
#X connect 69 0 6 0;
#X connect 69 0 9 0;
#X connect 69 0 16 0;
#X connect 71 0 12 1;
#X connect 72 0 39 0;
#X connect 73 0 39 0;
#X connect 74 0 72 0;
#X connect 75 0 73 0;
#X connect 83 0 55 0;
#X connect 85 0 87 0;
#X connect 86 0 90 0;
#X connect 86 0 92 0;
#X connect 87 0 86 0;
#X connect 88 0 91 0;
#X connect 88 0 97 0;
#X connect 89 0 91 1;
#X connect 89 0 93 0;
#X connect 91 0 85 0;
#X connect 92 0 94 0;
#X connect 93 0 92 0;
#X connect 93 1 92 1;
#X connect 94 0 96 0;
#X connect 95 0 3 0;
#X connect 96 0 95 0;
#X connect 96 1 95 1;
#X connect 97 0 98 0;
#X connect 98 0 96 0;
#X connect 99 0 95 0;
#X connect 100 0 102 1;
#X connect 101 0 102 2;
#X connect 102 0 5 0;
#X connect 102 1 5 1;
#X restore 696 397 pd BLINZELN;
#N canvas 0 0 1920 997 GENOM-ARRAY 0;
#N canvas 0 0 450 300 (subpatch) 0;
#X array 30POINTGENOME 30 float 5;
#A 0 57 76 112 115 33 109 90 50 110 107 89 32 40 85 60 96 33 43 44
39 55 57 43 83 19 123 20 16 98 117;
#X coords 0 127 29 0 200 140 1;
#X restore 83 105 graph;
#X msg 94 349 \; 30POINTGENOME 0 \$1 \$2 \$3 \$4 \$5 \$6 \$7 \$8 \$9
\$10 \$11 \$12 \$13 \$14 \$15 \$16 \$17 \$18 \$19 \$20 \$21 \$22 \$23
\$24 \$25 \$26 \$27 \$28 \$29 \$30;
#X obj 98 281 r FullGenome;
#X connect 2 0 1 0;
#X restore 489 244 pd GENOM-ARRAY;
