#N canvas 1092 245 1920 997 12;
#N canvas 0 0 1916 980 GENOM-INPUT 0;
#X obj 666 174 netreceive 3000;
#X floatatom 340 491 5 0 0 0 - - -;
#X floatatom 381 492 5 0 0 0 - - -;
#X floatatom 425 488 5 0 0 0 - - -;
#X floatatom 470 490 5 0 0 0 - - -;
#X floatatom 518 491 5 0 0 0 - - -;
#X floatatom 566 493 5 0 0 0 - - -;
#X floatatom 620 494 5 0 0 0 - - -;
#X floatatom 776 502 5 0 0 0 - - -;
#X floatatom 837 503 5 0 0 0 - - -;
#X floatatom 884 506 5 0 0 0 - - -;
#X obj 566 567 s Genom6;
#X obj 622 524 s Genom7;
#X obj 777 540 s Genom8;
#X obj 837 564 s Genom9;
#X obj 887 538 s Genom10;
#X obj 666 356 unpack f1 f2 f3 f4 f54 f6 f7 f8 f9 f10 f11 f12 f13 f14
f15 f16 f17 f18 f19 f20 f21 f22 f23 f24 f25 f26 f27 f28 f29 f30;
#X floatatom 944 502 5 0 0 0 - - -;
#X floatatom 985 503 5 0 0 0 - - -;
#X floatatom 1029 499 5 0 0 0 - - -;
#X floatatom 1074 501 5 0 0 0 - - -;
#X floatatom 1122 502 5 0 0 0 - - -;
#X floatatom 1160 504 5 0 0 0 - - -;
#X floatatom 1207 507 5 0 0 0 - - -;
#X floatatom 1248 504 5 0 0 0 - - -;
#X floatatom 1291 502 5 0 0 0 - - -;
#X floatatom 1338 505 5 0 0 0 - - -;
#X obj 937 563 s Genom11;
#X obj 977 539 s Genom12;
#X obj 1020 562 s Genom13;
#X obj 1064 535 s Genom14;
#X obj 1105 571 s Genom15;
#X obj 1160 539 s Genom16;
#X obj 1196 579 s Genom17;
#X obj 1249 542 s Genom18;
#X obj 1287 584 s Genom19;
#X obj 1338 545 s Genom20;
#X floatatom 1397 502 5 0 0 0 - - -;
#X floatatom 1438 503 5 0 0 0 - - -;
#X floatatom 1643 507 5 0 0 0 - - -;
#X floatatom 1825 503 5 0 0 0 - - -;
#X floatatom 1873 504 5 0 0 0 - - -;
#X floatatom 1911 506 5 0 0 0 - - -;
#X floatatom 1958 509 5 0 0 0 - - -;
#X floatatom 1999 506 5 0 0 0 - - -;
#X floatatom 2042 504 5 0 0 0 - - -;
#X floatatom 2089 507 5 0 0 0 - - -;
#X obj 1399 593 s Genom21;
#X obj 1444 548 s Genom22;
#X obj 1604 568 s Genom23;
#X obj 1815 562 s Genom24;
#X obj 1898 567 s Genom25;
#X obj 1972 567 s Genom26;
#X obj 2051 562 s Genom27;
#X obj 2126 562 s Genom28;
#X obj 2200 563 s Genom29;
#X obj 2275 563 s Genom30;
#X msg 942 160 add2 \$1;
#X msg 942 216 7 31 105 21 66 43 63 109 10 28 31 8 45 108 74 110 62
27 21 14 80 14 97 90 54 106 31 99 62 119;
#X msg 868 126 set;
#X obj 942 122 random 128;
#X obj 868 81 loadbang;
#X obj 942 81 kalashnikov 30;
#X obj 836 38 t b b;
#X obj 836 8 bng 20 250 50 0 empty empty empty 17 7 0 10 -262144 -1
-1;
#X msg 214 218 set \$1 \$2 \$3 \$4 \$5 \$6 \$7 \$8 \$9 \$10 \$11 \$12
\$13 \$14 \$15 \$16 \$17 \$18 \$19 \$20 \$21 \$22 \$23 \$24 \$25 \$26
\$27 \$28 \$29 \$30;
#X msg 214 286;
#X text 167 498 SIRR-DELAY:;
#X text 104 592 DELAY TIME (0-1280);
#X text 105 574 DELAY FEEDBACK (0-1);
#X text 104 554 HIGHPASS-FREQUENCY (0-12800);
#X text 105 534 FILTERED SIGNAL VOLUME (0-1);
#X text 104 616 DELAYED SIGNAL VOLUME (0-1);
#X obj 339 521 s Genom1;
#X obj 381 562 s Genom2;
#X obj 421 524 s Genom3;
#X obj 470 571 s Genom4;
#X obj 519 526 s Genom5;
#X obj 697 252 s FullGenome;
#X text 897 9 CREATE RANDOM PSEUDO-GENOME FOR TESTING;
#X obj 657 20 r test-genome;
#X text 747 572 BLINZELN :;
#X text 693 601 GATE MODE (0 - 128);
#X text 100 643 FILTER MODULATION ( <64: OFF \, >64: ON);
#X text 106 664 FILTER MODULATION RATE (0 - 1280 ms);
#X text 1606 602 REVERB_SEND:;
#X text 1598 628 REVERB DECAY (0 - 100);
#X text 692 623 TEMPO GATE 1 (1 - 12800 ms);
#X text 694 653 LENGTH GATE 1 ( 1 - 513 ms);
#X text 694 681 TEMPO GATE 2 (1 - 12800 ms);
#X text 695 710 DELAY RATE MODULATION (<64: OFF \, >64: ON);
#X text 697 735 DELAY RATE MOD TEMPO (1 m- 1280 ms);
#X text 697 761 LENGTH GATE 2 ( 1 - 1025 ms);
#X text 693 784 DELAY RATE MOD MULTIPLICATION FACTOR (1 - 128);
#X text 692 813 DELAY TIME (1 - 3072 ms);
#X text 700 836 DELAY FEEDBACK ( 0 - 1);
#X text 699 862 REVERB SEND (0 - 1);
#X text 701 883 BAND PASS FILTER Q (0 - 8);
#X text 694 901 BAND PASS FILTER FREQ (0 - 1280 Htz);
#X text 694 928 GATE MOD (<64: OFF \, >64: ON);
#X text 694 958 GATE MOD TEMPO (1 - 512 ms);
#X connect 0 0 16 0;
#X connect 0 0 65 0;
#X connect 0 0 78 0;
#X connect 1 0 73 0;
#X connect 2 0 74 0;
#X connect 3 0 75 0;
#X connect 4 0 76 0;
#X connect 5 0 77 0;
#X connect 6 0 11 0;
#X connect 7 0 12 0;
#X connect 8 0 13 0;
#X connect 9 0 14 0;
#X connect 10 0 15 0;
#X connect 16 0 1 0;
#X connect 16 1 2 0;
#X connect 16 2 3 0;
#X connect 16 3 4 0;
#X connect 16 4 5 0;
#X connect 16 5 6 0;
#X connect 16 6 7 0;
#X connect 16 7 8 0;
#X connect 16 8 9 0;
#X connect 16 9 10 0;
#X connect 16 10 17 0;
#X connect 16 11 18 0;
#X connect 16 12 19 0;
#X connect 16 13 20 0;
#X connect 16 14 21 0;
#X connect 16 15 22 0;
#X connect 16 16 23 0;
#X connect 16 17 24 0;
#X connect 16 18 25 0;
#X connect 16 19 26 0;
#X connect 16 20 37 0;
#X connect 16 21 38 0;
#X connect 16 22 39 0;
#X connect 16 23 40 0;
#X connect 16 24 41 0;
#X connect 16 25 42 0;
#X connect 16 26 43 0;
#X connect 16 27 44 0;
#X connect 16 28 45 0;
#X connect 16 29 46 0;
#X connect 17 0 27 0;
#X connect 18 0 28 0;
#X connect 19 0 29 0;
#X connect 20 0 30 0;
#X connect 21 0 31 0;
#X connect 22 0 32 0;
#X connect 23 0 33 0;
#X connect 24 0 34 0;
#X connect 25 0 35 0;
#X connect 26 0 36 0;
#X connect 37 0 47 0;
#X connect 38 0 48 0;
#X connect 39 0 49 0;
#X connect 40 0 50 0;
#X connect 41 0 51 0;
#X connect 42 0 52 0;
#X connect 43 0 53 0;
#X connect 44 0 54 0;
#X connect 45 0 55 0;
#X connect 46 0 56 0;
#X connect 57 0 58 0;
#X connect 58 0 16 0;
#X connect 58 0 78 0;
#X connect 59 0 58 0;
#X connect 60 0 57 0;
#X connect 61 0 59 0;
#X connect 62 0 60 0;
#X connect 62 2 58 0;
#X connect 63 0 62 0;
#X connect 63 1 59 0;
#X connect 64 0 63 0;
#X connect 65 0 66 0;
#X connect 80 0 64 0;
#X restore 489 125 pd GENOM-INPUT;
#N canvas 0 0 1916 997 AUDIO-INPUT 0;
#N canvas 0 50 1916 997 (subpatch) 0;
#X array \$0-ARRAY 887456 float 2;
#X coords 0 1 887456 -1 200 140 1;
#X restore 962 67 graph;
#X obj 633 634 dac~;
#X obj 635 351 bng 20 250 50 0 empty empty empty 17 7 0 10 -262144
-1 -1;
#X obj 635 421 tabplay~ \$0-ARRAY;
#X floatatom 635 180 10 0 0 0 - - -;
#X obj 658 95 bng 20 250 50 0 empty empty empty 17 7 0 10 -262144 -1
-1;
#N canvas 640 49 1280 651 load 0;
#X obj 111 26 inlet;
#X obj 111 349 soundfiler;
#X obj 111 90 openpanel;
#X obj 111 136 t b a;
#X msg 111 113 set \$1;
#X obj 195 83 f \$0;
#X obj 111 63 t b b;
#X obj 111 321 list trim;
#X obj 111 294 list;
#X obj 59 435 outlet;
#X obj 41 142 inlet;
#X msg 195 103 \$1-ARRAY;
#X obj 111 236 list prepend read -resize;
#X obj 111 436 s \$0-ARRAY;
#X obj 111 377 bang;
#X msg 111 405 normalize;
#X msg 111 162 C:/Users/BlockUser/ITU/ART-LIFE/PROJEKT/GIT/evolution_and_music/palestrina.wav
;
#X connect 0 0 6 0;
#X connect 1 0 9 0;
#X connect 1 0 14 0;
#X connect 2 0 4 0;
#X connect 3 0 16 0;
#X connect 3 1 16 0;
#X connect 4 0 3 0;
#X connect 5 0 11 0;
#X connect 6 0 2 0;
#X connect 6 1 5 0;
#X connect 7 0 1 0;
#X connect 8 0 7 0;
#X connect 10 0 16 0;
#X connect 11 0 8 1;
#X connect 12 0 8 0;
#X connect 14 0 15 0;
#X connect 15 0 13 0;
#X connect 16 0 12 0;
#X restore 635 153 pd load;
#X obj 749 375 spigot;
#X obj 788 297 tgl 20 0 empty empty empty 17 7 0 10 -262144 -1 -1 1
1;
#X obj 634 599 *~;
#X obj 659 449 s~ pureOut;
#X msg 588 381 stop;
#X obj 652 560 * 0.01;
#X text 817 298 LOOP;
#X text 643 331 PLAY;
#X obj 725 497 vsl 30 60 0 100 0 0 empty empty empty 0 -9 0 10 -262144
-1 -1 0 1;
#X text 653 74 LOAD SOUND (WAV only);
#X obj 788 230 loadbang;
#X msg 788 270 1;
#X msg 909 290 \; pd dsp \$1;
#X obj 321 300 soundfiler;
#X obj 346 191 f \$0;
#X obj 321 272 list trim;
#X obj 321 245 list;
#X msg 346 211 \$1-ARRAY;
#X obj 321 155 list prepend read -resize;
#X obj 321 387 s \$0-ARRAY;
#X obj 321 328 bang;
#X msg 321 356 normalize;
#X msg 321 113 ../palestrina.wav;
#X obj 321 77 bng 15 250 50 0 empty empty empty 17 7 0 10 -262144 -1
-1;
#X obj 321 36 loadbang;
#X msg 652 526 0;
#X connect 2 0 3 0;
#X connect 3 0 9 0;
#X connect 3 0 10 0;
#X connect 3 1 7 0;
#X connect 4 0 2 0;
#X connect 5 0 6 1;
#X connect 6 0 4 0;
#X connect 7 0 2 0;
#X connect 8 0 7 1;
#X connect 9 0 1 0;
#X connect 9 0 1 1;
#X connect 11 0 3 0;
#X connect 12 0 9 1;
#X connect 15 0 12 0;
#X connect 17 0 18 0;
#X connect 18 0 8 0;
#X connect 18 0 19 0;
#X connect 20 0 27 0;
#X connect 21 0 24 0;
#X connect 22 0 20 0;
#X connect 23 0 22 0;
#X connect 24 0 23 1;
#X connect 25 0 23 0;
#X connect 27 0 28 0;
#X connect 28 0 26 0;
#X connect 28 0 2 0;
#X connect 29 0 25 0;
#X connect 30 0 21 0;
#X connect 30 0 29 0;
#X connect 31 0 30 0;
#X connect 32 0 12 0;
#X restore 721 125 pd AUDIO-INPUT;
#N canvas 0 0 1916 997 GENOM-ARRAY 0;
#N canvas 0 0 450 300 (subpatch) 0;
#X array 30POINTGENOME 30 float 5;
#A 0 7 31 105 21 66 43 63 109 10 28 31 8 45 108 74 110 62 27 21 14
80 14 97 90 54 106 31 99 62 119;
#X coords 0 127 29 0 200 140 1;
#X restore 83 105 graph;
#X msg 94 349 \; 30POINTGENOME 0 \$1 \$2 \$3 \$4 \$5 \$6 \$7 \$8 \$9
\$10 \$11 \$12 \$13 \$14 \$15 \$16 \$17 \$18 \$19 \$20 \$21 \$22 \$23
\$24 \$25 \$26 \$27 \$28 \$29 \$30;
#X obj 98 281 r FullGenome;
#X floatatom 1580 427 5 0 0 0 - - -;
#X obj 1587 531 / 64;
#X obj 1585 456 - 64;
#X floatatom 1625 631 5 0 0 0 - - -;
#X connect 2 0 1 0;
#X connect 3 0 5 0;
#X connect 4 0 6 0;
#X connect 5 0 4 0;
#X restore 599 207 pd GENOM-ARRAY;
#X obj 1449 496 s test-genome;
#X obj 1449 462 bng 20 250 50 0 empty empty empty 17 7 0 10 -262144
-1 -1;
#N canvas 0 0 1916 997 REVERB_SEND 0;
#X obj 301 109 catch~ VerbSend;
#X obj 559 257 rev1~;
#X obj 533 318 dac~;
#X floatatom 575 146 5 0 0 0 - - -;
#X obj 575 213 / 1.28;
#X obj 575 108 r Genom23;
#X text 675 186 REVERB DECAY (0 - 100);
#X connect 0 0 1 0;
#X connect 1 0 2 0;
#X connect 1 0 2 1;
#X connect 3 0 4 0;
#X connect 4 0 1 1;
#X connect 5 0 3 0;
#X restore 588 553 pd REVERB_SEND;
#X text 591 523 GENOM 23;
#N canvas 0 57 1920 997 SIRR-DELAY 0;
#X obj 457 464 hip~;
#X floatatom 664 443 5 0 0 0 - - -;
#X obj 495 431 r hip_del;
#X obj 456 497 hip~;
#X obj 494 464 r hip_del;
#X obj 456 563 hip~;
#X obj 494 530 r hip_del;
#X obj 456 257 r~ pureOut;
#X obj 561 754 dac~;
#X obj 561 582 *~;
#X floatatom 579 544 5 0 100 0 - - -;
#X floatatom 851 512 5 0 0 0 - - -;
#X obj 851 537 pack f 55;
#X obj 851 564 line~;
#X obj 726 618 *~;
#X floatatom 744 567 5 0 100 0 - - -;
#X obj 968 735 *~;
#X floatatom 986 642 5 0 100 0 - - -;
#X obj 727 676 delwrite~ SIRR 1280;
#X obj 852 599 vd~ SIRR 1280;
#X obj 456 529 hip~;
#X obj 494 496 r hip_del;
#X text 675 415 0 12800;
#X floatatom 664 193 5 0 0 0 - - -;
#X floatatom 744 191 5 0 0 0 - - -;
#X floatatom 851 191 5 0 0 0 - - -;
#X floatatom 986 188 5 0 0 0 - - -;
#X floatatom 579 196 5 0 0 0 - - -;
#X obj 579 226 / 128;
#X obj 664 232 * 100;
#X obj 851 232 * 10;
#X obj 986 224 / 128;
#X obj 744 230 / 128;
#X obj 457 422 *~;
#X obj 508 402 tgl 20 0 empty empty empty 17 7 0 10 -262144 -1 -1 1
1;
#X text 808 487 min 0 \, max 1280;
#X text 631 570 min 0 \, max 1!!!;
#X obj 300 338 loadbang;
#X msg 300 382 1;
#X text 55 57 SIRR-DELAY:;
#X text 64 124 DELAY FEEDBACK (0-1);
#X text 64 84 FILTERED SIGNAL VOLUME (0-1);
#X obj 579 163 line;
#X obj 579 124 pack f 100;
#X obj 664 163 line;
#X obj 664 124 pack f 100;
#X obj 744 163 line;
#X obj 744 124 pack f 100;
#X obj 851 162 line;
#X obj 851 123 pack f 100;
#X obj 986 161 line;
#X obj 986 122 pack f 100;
#X text 63 166 DELAY OUTPUT VOLUME (0-1);
#X obj 135 542 s test-genome;
#X obj 135 508 bng 20 250 50 0 empty empty empty 17 7 0 10 -262144
-1 -1;
#X obj 389 805 compressor~;
#X obj 405 857 dac~;
#X obj 1172 285 tgl 20 0 empty empty empty 17 7 0 10 -262144 -1 -1
1 1;
#X obj 1172 344 counter 0 29;
#X obj 1172 374 tabread 30POINTGENOME;
#X floatatom 1232 289 5 0 0 0 - - -;
#X obj 1172 313 metro 222;
#X obj 1172 400 * 100;
#X obj 664 469 s hip_del;
#X floatatom 1074 188 5 0 0 0 - - -;
#X obj 1074 160 line;
#X obj 1074 121 pack f 100;
#X obj 1074 215 moses 64;
#X msg 1074 238 0;
#X msg 1127 238 1;
#X obj 1074 265 change;
#X floatatom 1232 185 5 0 0 0 - - -;
#X obj 1232 157 line;
#X obj 1232 118 pack f 100;
#X text 63 188 FILTER MODULATION ( <64: OFF \, >64: ON);
#X text 69 209 FILTER MODULATION RATE (0 - 1280 ms);
#X text 63 142 DELAY TIME (0-1280 ms);
#X text 63 104 HIGHPASS-FREQUENCY (0-12800 Htz);
#X obj 579 6 r Genom1;
#X obj 664 5 r Genom2;
#X obj 744 5 r Genom3;
#X obj 851 5 r Genom4;
#X obj 986 7 r Genom5;
#X obj 1074 9 r Genom6;
#X obj 1232 13 r Genom7;
#X obj 1172 449 line;
#X obj 1172 426 pack f 55;
#X obj 1232 214 * 10;
#X connect 0 0 3 0;
#X connect 1 0 63 0;
#X connect 2 0 0 1;
#X connect 3 0 20 0;
#X connect 4 0 3 1;
#X connect 5 0 9 0;
#X connect 5 0 18 0;
#X connect 6 0 5 1;
#X connect 7 0 33 0;
#X connect 9 0 8 0;
#X connect 9 0 8 1;
#X connect 10 0 9 1;
#X connect 11 0 12 0;
#X connect 12 0 13 0;
#X connect 13 0 19 0;
#X connect 14 0 18 0;
#X connect 15 0 14 1;
#X connect 16 0 8 0;
#X connect 16 0 8 1;
#X connect 17 0 16 1;
#X connect 19 0 14 0;
#X connect 19 0 16 0;
#X connect 20 0 5 0;
#X connect 21 0 20 1;
#X connect 23 0 29 0;
#X connect 24 0 32 0;
#X connect 25 0 30 0;
#X connect 26 0 31 0;
#X connect 27 0 28 0;
#X connect 28 0 10 0;
#X connect 29 0 1 0;
#X connect 30 0 11 0;
#X connect 31 0 17 0;
#X connect 32 0 15 0;
#X connect 33 0 0 0;
#X connect 34 0 33 1;
#X connect 37 0 38 0;
#X connect 38 0 34 0;
#X connect 42 0 27 0;
#X connect 43 0 42 0;
#X connect 44 0 23 0;
#X connect 45 0 44 0;
#X connect 46 0 24 0;
#X connect 47 0 46 0;
#X connect 48 0 25 0;
#X connect 49 0 48 0;
#X connect 50 0 26 0;
#X connect 51 0 50 0;
#X connect 54 0 53 0;
#X connect 55 0 56 0;
#X connect 55 0 56 1;
#X connect 57 0 61 0;
#X connect 58 0 59 0;
#X connect 59 0 62 0;
#X connect 60 0 61 1;
#X connect 60 0 86 1;
#X connect 61 0 58 0;
#X connect 62 0 86 0;
#X connect 64 0 67 0;
#X connect 65 0 64 0;
#X connect 66 0 65 0;
#X connect 67 0 68 0;
#X connect 67 1 69 0;
#X connect 68 0 70 0;
#X connect 69 0 70 0;
#X connect 70 0 57 0;
#X connect 71 0 87 0;
#X connect 72 0 71 0;
#X connect 73 0 72 0;
#X connect 78 0 43 0;
#X connect 79 0 45 0;
#X connect 80 0 47 0;
#X connect 81 0 49 0;
#X connect 82 0 51 0;
#X connect 83 0 66 0;
#X connect 84 0 73 0;
#X connect 85 0 63 0;
#X connect 86 0 85 0;
#X connect 87 0 60 0;
#X restore 517 392 pd SIRR-DELAY;
#X text 521 366 GENOM 1 - 7;
#N canvas 0 50 1920 997 BLINZELN 0;
#X obj 312 496 delwrite~ blinzeln 2000;
#X floatatom 580 324 5 0 0 0 - - -;
#X obj 580 355 pack f 44;
#X obj 580 409 line~;
#X obj 579 754 dac~;
#X obj 407 459 *~;
#X obj 312 385 *~;
#X msg 411 240 0;
#X obj 411 213 delay 128;
#X obj 796 736 *~;
#X obj 795 770 throw~ VerbSend;
#X floatatom 325 130 5 0 0 0 - - -;
#X obj 219 96 tgl 20 0 empty empty empty 17 7 0 10 -262144 -1 -1 1
1;
#X obj 219 159 metro 900;
#X msg 219 193 bang;
#X obj 77 101 loadbang;
#X msg 77 139 1;
#X obj 870 268 line;
#X msg 902 248 0;
#X obj 870 165 t b b;
#X obj 870 120 bng 24 250 50 0 empty empty empty 17 7 0 10 -262144
-1 -1;
#X obj 734 97 tgl 20 0 empty empty empty 17 7 0 10 -262144 -1 -1 1
1;
#X floatatom 801 100 5 0 0 0 - - -;
#X obj 734 145 metro 5120;
#X obj 331 288 sig~;
#X obj 979 308 del 5;
#X obj 1305 122 cup;
#X obj 1305 183 tabread 30POINTGENOME;
#X obj 1305 151 mod 30;
#X obj 1279 62 tgl 20 0 empty empty empty 17 7 0 10 -262144 -1 -1 0
1;
#X floatatom 1474 79 5 0 0 0 - - -;
#X obj 1305 98 metro 666;
#X obj 1474 235 pack f f;
#X obj 1474 208 t b f;
#X obj 1474 281 line;
#X obj 1280 335 *;
#X obj 1279 301 t b f;
#X obj 1279 240 sel 0;
#X msg 1279 270 1;
#X floatatom 627 653 5 0 0 0 - - -;
#X obj 579 672 vcf~;
#X obj 469 653 sig~;
#X obj 183 316 r~ pureOut;
#X text 643 627 19;
#X obj 425 73 r Genom10;
#X obj 801 -108 r Genom11;
#X obj 1279 -109 r Genom12;
#X obj 1428 -108 r Genom13;
#X obj 957 -102 r Genom14;
#X obj 1043 241 r Genom15;
#X obj 580 177 r Genom16;
#X obj 426 322 r Genom17;
#X obj 814 627 r Genom18;
#X obj 338 552 r Genom20;
#X obj 53 -164 r Genom21;
#X obj 338 -187 r Genom22;
#X obj 553 -73 moses 42;
#X obj 617 -73 moses 84;
#X msg 553 -31 0;
#X msg 617 -31 1;
#X msg 670 -31 2;
#X obj 553 -11 change;
#X obj 553 25 sel 0 1 2;
#X msg 219 45 0;
#X msg 593 77 1;
#X msg 625 77 0;
#X msg 250 45 1;
#X obj 226 -121 metro 123;
#X floatatom 286 -148 5 0 0 0 - - -;
#X obj 226 -93 counter 0 127;
#X obj 279 80 * 100;
#X obj 553 -136 r Genom8;
#X obj 279 5 r Genom9;
#X text 806 585 18;
#X text 530 -161 GATE MODE (0 - 128);
#X text 231 -21 TEMPO GATE 1 (1 - 12800 ms);
#X obj 426 407 pack f 100;
#X obj 801 36 * 100;
#X obj 801 61 + 1;
#X text 724 -134 TEMPO GATE 2 (1 - 12800 ms);
#X obj 1279 -47 moses 64;
#X obj 1279 31 change;
#X msg 1279 -5 0;
#X msg 1332 -6 1;
#X floatatom 1279 -78 5 0 0 0 - - -;
#X floatatom 801 -50 5 0 0 0 - - -;
#X floatatom 553 -99 5 0 0 0 - - -;
#X floatatom 1428 -72 5 0 0 0 - - -;
#X obj 1428 -35 * 10;
#X text 361 48 LENGTH GATE 1 ( 1 - 513 ms);
#X text 1237 -147 DELAY RATE MODULATION (<64: OFF \, >64: ON);
#X obj 1244 577 s test-genome;
#X obj 1244 543 bng 20 250 50 0 empty empty empty 17 7 0 10 -262144
-1 -1;
#X text 1501 -109 DELAY RATE MOD TEMPO (1 m- 1280 ms);
#X text 941 216 DELAY RATE MOD MULTIPLICATION FACTOR (1 - 128);
#X floatatom 1043 274 5 0 0 0 - - -;
#X text 934 -128 LENGTH GATE 2 ( 1 - 1025 ms);
#X obj 957 -16 moses 1;
#X obj 1428 -10 moses 1;
#X obj 1043 315 moses 1;
#X obj 425 169 moses 1;
#X obj 279 105 moses 1;
#X floatatom 580 206 5 0 0 0 - - -;
#X obj 580 234 * 24;
#X obj 579 717 vcf~;
#X obj 580 260 + 1;
#X obj 579 440 vd~ blinzeln 3073;
#X text 547 151 DELAY TIME (1 - 3072 ms);
#X text 394 303 DELAY FEEDBACK ( 0 - 1);
#X obj 426 373 / 128;
#X obj 426 433 line~;
#X floatatom 426 349 5 0 0 0 - - -;
#X obj 814 685 / 128;
#X text 789 599 REVERB SEND (0 - 1);
#X obj 627 506 r Genom19;
#X obj 627 607 / 16;
#X floatatom 627 531 5 0 0 0 - - -;
#X obj 627 555 pack f 100;
#X obj 627 581 line;
#X text 639 480 BAND PASS FILTER Q (0 - 8);
#X text 81 549 BAND PASS FILTER FREQ (0 - 1280 Htz);
#X obj 338 633 moses 1;
#X obj 338 605 * 10;
#X obj 226 -148 tgl 20 0 empty empty empty 17 7 0 10 -262144 -1 -1
1 1;
#X obj 53 -107 moses 64;
#X obj 106 -48 change;
#X msg 53 -77 0;
#X msg 106 -78 1;
#X floatatom 53 -130 5 0 0 0 - - -;
#X floatatom 338 -159 5 0 0 0 - - -;
#X obj 338 -133 * 4;
#X obj 338 -106 moses 1;
#X text -13 -187 GATE MOD (<64: OFF \, >64: ON);
#X text 229 -70 GATE MOD TEMPO (1 - 512 ms);
#X msg 870 213 2 1080;
#X msg 331 240 2;
#X msg 1003 164 set 2 \$1;
#X obj 923 288 sel 2;
#X msg 215 268 0;
#X obj 184 366 *~;
#X msg 70 330 1;
#X obj 70 291 r Genom22;
#X obj 957 -44 * 10;
#X obj 425 141 * 10;
#X floatatom 957 -71 5 0 0 0 - - -;
#X floatatom 425 104 5 0 0 0 - - -;
#X floatatom 814 654 5 0 100 0 - - -;
#X floatatom 338 580 5 0 0 0 - - -;
#X connect 1 0 2 0;
#X connect 2 0 3 0;
#X connect 3 0 106 0;
#X connect 5 0 0 0;
#X connect 6 0 0 0;
#X connect 6 0 40 0;
#X connect 7 0 24 0;
#X connect 8 0 7 0;
#X connect 9 0 10 0;
#X connect 11 0 13 1;
#X connect 12 0 13 0;
#X connect 13 0 14 0;
#X connect 14 0 8 0;
#X connect 14 0 135 0;
#X connect 15 0 16 0;
#X connect 15 0 138 0;
#X connect 16 0 13 0;
#X connect 17 0 24 0;
#X connect 17 0 137 0;
#X connect 18 0 17 0;
#X connect 19 0 134 0;
#X connect 19 1 18 0;
#X connect 20 0 19 0;
#X connect 21 0 23 0;
#X connect 22 0 23 1;
#X connect 23 0 19 0;
#X connect 24 0 6 1;
#X connect 25 0 18 0;
#X connect 26 0 28 0;
#X connect 27 0 32 0;
#X connect 28 0 27 0;
#X connect 29 0 31 0;
#X connect 29 0 37 0;
#X connect 30 0 31 1;
#X connect 30 0 33 0;
#X connect 31 0 26 0;
#X connect 32 0 34 0;
#X connect 33 0 32 0;
#X connect 33 1 32 1;
#X connect 34 0 36 0;
#X connect 35 0 2 0;
#X connect 36 0 35 0;
#X connect 36 1 35 1;
#X connect 37 0 38 0;
#X connect 38 0 36 0;
#X connect 39 0 40 2;
#X connect 39 0 104 2;
#X connect 40 0 104 0;
#X connect 40 1 104 0;
#X connect 41 0 40 1;
#X connect 41 0 104 1;
#X connect 42 0 139 0;
#X connect 44 0 145 0;
#X connect 45 0 85 0;
#X connect 46 0 84 0;
#X connect 47 0 87 0;
#X connect 48 0 144 0;
#X connect 49 0 95 0;
#X connect 50 0 102 0;
#X connect 51 0 111 0;
#X connect 52 0 146 0;
#X connect 53 0 147 0;
#X connect 54 0 128 0;
#X connect 55 0 129 0;
#X connect 56 0 58 0;
#X connect 56 1 57 0;
#X connect 57 0 59 0;
#X connect 57 1 60 0;
#X connect 58 0 61 0;
#X connect 59 0 61 0;
#X connect 60 0 61 0;
#X connect 61 0 62 0;
#X connect 62 0 63 0;
#X connect 62 0 64 0;
#X connect 62 1 66 0;
#X connect 62 1 65 0;
#X connect 62 2 66 0;
#X connect 62 2 64 0;
#X connect 63 0 12 0;
#X connect 64 0 21 0;
#X connect 65 0 21 0;
#X connect 66 0 12 0;
#X connect 67 0 69 0;
#X connect 68 0 67 1;
#X connect 69 0 56 0;
#X connect 70 0 101 0;
#X connect 71 0 86 0;
#X connect 72 0 70 0;
#X connect 76 0 110 0;
#X connect 77 0 78 0;
#X connect 78 0 22 0;
#X connect 80 0 82 0;
#X connect 80 1 83 0;
#X connect 81 0 29 0;
#X connect 82 0 81 0;
#X connect 83 0 81 0;
#X connect 84 0 80 0;
#X connect 85 0 77 0;
#X connect 86 0 56 0;
#X connect 87 0 88 0;
#X connect 88 0 98 0;
#X connect 92 0 91 0;
#X connect 95 0 99 0;
#X connect 97 1 136 0;
#X connect 98 1 30 0;
#X connect 99 1 35 0;
#X connect 100 1 8 1;
#X connect 101 1 11 0;
#X connect 102 0 103 0;
#X connect 103 0 105 0;
#X connect 104 0 4 0;
#X connect 104 0 9 0;
#X connect 104 1 4 1;
#X connect 104 1 9 0;
#X connect 105 0 1 0;
#X connect 106 0 5 0;
#X connect 106 0 40 0;
#X connect 109 0 76 0;
#X connect 110 0 5 1;
#X connect 111 0 109 0;
#X connect 112 0 9 1;
#X connect 114 0 116 0;
#X connect 115 0 39 0;
#X connect 116 0 117 0;
#X connect 117 0 118 0;
#X connect 118 0 115 0;
#X connect 121 1 41 0;
#X connect 122 0 121 0;
#X connect 123 0 67 0;
#X connect 124 0 126 0;
#X connect 124 1 127 0;
#X connect 125 0 123 0;
#X connect 126 0 125 0;
#X connect 127 0 125 0;
#X connect 128 0 124 0;
#X connect 129 0 130 0;
#X connect 130 0 131 0;
#X connect 131 1 68 0;
#X connect 134 0 17 0;
#X connect 135 0 24 0;
#X connect 136 0 134 0;
#X connect 137 0 25 0;
#X connect 138 0 24 0;
#X connect 139 0 6 0;
#X connect 140 0 139 1;
#X connect 141 0 140 0;
#X connect 142 0 97 0;
#X connect 143 0 100 0;
#X connect 144 0 142 0;
#X connect 145 0 143 0;
#X connect 146 0 112 0;
#X connect 147 0 122 0;
#X restore 651 390 pd BLINZELN;
#X text 657 362 GENOM 8 - 22;
#N canvas 0 100 1920 980 WAVETABLE 0;
#N canvas 0 0 450 300 (subpatch) 0;
#X array GENOM_WAVETABLE 67 float 1;
#A 0 0.328125 -0.015625 -0.546875 0.953125 0.34375 0.640625 0.671875
-0.75 0.703125 -0.5625 -0.796875 0.984375 -0.078125 0.734375 0.828125
0.78125 -0.875 0.0625 0.9375 0.125 0.96875 0.1875 0.8125 0.484375 -0.921875
0.984375 0.265625 0.1875 -0.484375 -0.53125 0.015625 -0.5625 0.265625
-0.234375 0.15625 -0.78125 0.6875 -0.984375 0.65625 0.375 0.96875 -0.578125
-0.171875 0.4375 -0.359375 0.1875 0.765625 0.734375 -0.984375 -0.5625
-0.140625 -0.734375 0.640625 0.296875 -0.765625 -0.328125 0.796875
0.71875 -0.828125 0.296875 -0.015625 -0.40625 0.703125 -0.96875 0.328125
-0.015625 -0.546875;
#X coords 0 1 66 -1 200 140 1;
#X restore 594 -460 graph;
#X obj 1093 -134 r FullGenome;
#X msg 1215 -308 add2 \$1;
#X msg 1215 -265 -0.296875 -0.015625 -0.546875 0.953125 0.34375 0.640625
0.671875 -0.75 0.703125 -0.5625 -0.796875 0.984375 -0.078125 0.734375
0.828125 0.78125 -0.875 0.0625 0.9375 0.125 0.96875 0.1875 0.8125 0.484375
-0.921875 0.984375 0.265625 0.1875 -0.484375 -0.53125 0.015625 -0.5625
0.265625 -0.234375 0.15625 -0.78125 0.6875 -0.984375 0.65625 0.375
0.96875 -0.578125 -0.171875 0.4375 -0.359375 0.1875 0.765625 0.734375
-0.984375 -0.5625 -0.140625 -0.734375 0.640625 0.296875 -0.765625 -0.328125
0.796875 0.71875 -0.828125 0.296875 -0.015625 -0.40625 0.703125 -0.96875
0.328125 0.609375 -0.046875;
#X msg 1141 -391 set;
#X obj 1215 -391 random 128;
#X obj 1141 -432 loadbang;
#X obj 1109 -475 t b b;
#X obj 1109 -505 bng 20 250 50 0 empty empty empty 17 7 0 10 -262144
-1 -1;
#X obj 1215 -432 kalashnikov 67;
#X msg 1680 -143 \; GENOM_WAVETABLE 0 \$1 \$2 \$3 \$4 \$5 \$6 \$7 \$8
\$9 \$10 \$11 \$12 \$13 \$14 \$15 \$16 \$17 \$18 \$19 \$20 \$21 \$22
\$23 \$24 \$25 \$26 \$27 \$28 \$29 \$30 \$31 \$32 \$33 \$34 \$35 \$36
\$37 \$38 \$39 \$40 \$41 \$42 \$43 \$44 \$45 \$46 \$47 \$48 \$49 \$50
\$51 \$52 \$53 \$54 \$55 \$56 \$57 \$58 \$59 \$60 \$61 \$62 \$63 \$64
\$65 \$66 \$67;
#X obj 1215 -336 / 64;
#X obj 1215 -362 - 64;
#X obj 136 -429 tabosc4~ GENOM_WAVETABLE;
#X floatatom 133 -509 5 0 0 0 - - -;
#X obj 295 195 f;
#X obj 324 195 f;
#X obj 354 195 f;
#X obj 383 195 f;
#X obj 58 98 metro 155;
#X obj 58 54 tgl 20 0 empty empty empty 17 7 0 10 -262144 -1 -1 0 1
;
#X floatatom 118 61 5 0 0 0 - - -;
#X obj 313 18 unpack f1 f2 f3 f4 f5 f6 f7 f8;
#X obj 295 138 sel 1 2 3 4 5 6 7 8;
#X obj 383 267 f;
#X obj 413 195 f;
#X obj 442 195 f;
#X obj 472 195 f;
#X obj 502 195 f;
#X obj 126 118 counter 1 8;
#X floatatom 383 305 5 0 0 0 - - -;
#X msg 184 -57 1 2 3 4 5 6 7 8;
#X msg 335 -55 11 22 33 44 55 66 77 88;
#X obj 611 289 osc~;
#X msg 583 -21 111 222 333 444 555 666 777 888;
#X msg 568 -53 0 111 222 333 444 555 666 777;
#X obj 1585 267 s test-genome;
#X obj 1585 233 bng 20 250 50 0 empty empty empty 17 7 0 10 -262144
-1 -1;
#X msg 967 177 66;
#X text 1116 143 TEMPO;
#X obj 1024 303 adsr;
#X text 1121 241 8: HOW MANY NOTES ALLOWED ( 128 / 16 \, 32 \, 48 \,
... \, 128);
#X text 1120 192 1: CLOCK DIVIDER RANGE;
#X text 1117 169 1: CLOCK DIVIDER ON/OFF;
#X text 1121 301 8: SELECT SCALE;
#X text 1118 329 4: ADSR;
#X text 1116 363 2: FILTER FREQ & Q;
#X text 1120 273 1: LENGTH OF LOOP;
#X text 1119 215 8: NOTES (128 / 16 \; TO ARRAY?);
#X text 947 -262 1 = 65 \; 2 = 66 \; 3 = 67;
#X text 846 -263 0 = 64 \; 1 = 65 \; 2 = 66;
#X msg 972 -53 set \$1 \$2 \$3 \$1 \$4 \$3;
#X msg 974 24 1 2 3 1 4 3;
#X msg 946 -122 1 2 3 4;
#X msg 1215 -56 \; GENOM_WAVETABLE 0 \$65 \$2 \$3 \$4 \$5 \$6 \$7 \$8
\$9 \$10 \$11 \$12 \$13 \$14 \$15 \$16 \$17 \$18 \$19 \$20 \$21 \$22
\$23 \$24 \$25 \$26 \$27 \$28 \$29 \$30 \$31 \$32 \$33 \$34 \$35 \$36
\$37 \$38 \$39 \$40 \$41 \$42 \$43 \$44 \$45 \$46 \$47 \$48 \$49 \$50
\$51 \$52 \$53 \$54 \$55 \$56 \$57 \$58 \$59 \$60 \$61 \$62 \$63 \$64
\$65 \$2 \$3;
#X connect 2 0 3 0;
#X connect 3 0 54 0;
#X connect 4 0 3 0;
#X connect 5 0 12 0;
#X connect 6 0 4 0;
#X connect 7 0 9 0;
#X connect 7 1 4 0;
#X connect 8 0 7 0;
#X connect 9 0 5 0;
#X connect 9 2 3 0;
#X connect 11 0 2 0;
#X connect 12 0 11 0;
#X connect 14 0 13 0;
#X connect 15 0 24 0;
#X connect 16 0 24 0;
#X connect 17 0 24 0;
#X connect 18 0 24 0;
#X connect 19 0 29 0;
#X connect 20 0 19 0;
#X connect 21 0 19 1;
#X connect 22 0 15 1;
#X connect 22 1 16 1;
#X connect 22 2 17 1;
#X connect 22 3 18 1;
#X connect 22 4 25 1;
#X connect 22 5 26 1;
#X connect 22 6 27 1;
#X connect 22 7 28 1;
#X connect 23 0 15 0;
#X connect 23 1 16 0;
#X connect 23 2 17 0;
#X connect 23 3 18 0;
#X connect 23 4 25 0;
#X connect 23 5 26 0;
#X connect 23 6 27 0;
#X connect 23 7 28 0;
#X connect 24 0 30 0;
#X connect 24 0 33 0;
#X connect 25 0 24 0;
#X connect 26 0 24 0;
#X connect 27 0 24 0;
#X connect 28 0 24 0;
#X connect 29 0 23 0;
#X connect 31 0 22 0;
#X connect 32 0 22 0;
#X connect 34 0 22 0;
#X connect 35 0 22 0;
#X connect 37 0 36 0;
#X connect 51 0 52 0;
#X connect 53 0 51 0;
#X restore 870 394 pd WAVETABLE;
#X text 871 365 GENOM 24 - 91 + ...;
#N canvas 0 0 1920 997 SCALES 0;
#X text 257 53 C;
#X msg 279 55 0 2 4 5 7 9 11;
#X obj 278 93 s scalesout;
#X obj 552 169 s scalesout;
#X text 541 137 F;
#X msg 554 138 5 7 9 10 12 14 16;
#X obj 660 318 s scalesout;
#X msg 658 283 9 11 13 14 16 18 20;
#X obj 370 570 r scalesout;
#X obj 405 609 unpack f1 f2 f3 f4 f5 f6 f7;
#X floatatom 368 664 5 0 0 0 - - -;
#X floatatom 308 668 5 0 0 0 - - -;
#X floatatom 420 661 5 0 0 0 - - -;
#X floatatom 472 662 5 0 0 0 - - -;
#X floatatom 529 664 5 0 0 0 - - -;
#X floatatom 603 669 5 0 0 0 - - -;
#X floatatom 667 673 5 0 0 0 - - -;
#X obj 1250 629 + 12;
#X obj 1042 208 vradio 20 1 0 9 empty empty empty 0 -8 0 10 -262144
-1 -1 2;
#X msg 1042 479 0;
#X msg 1087 479 12;
#X msg 1132 480 24;
#X msg 1175 479 36;
#X msg 1227 479 48;
#X msg 1269 479 60;
#X msg 1309 479 72;
#X msg 1359 479 84;
#X msg 1408 479 96;
#X obj 1129 499 t b f;
#X obj 1042 403 select 0 1 2 3 4 5 6 7 8;
#X obj 1193 629 + 12;
#X obj 1129 629 + 12;
#X obj 1065 629 + 12;
#X obj 1453 629 + 12;
#X obj 1383 629 + 12;
#X obj 1317 629 + 12;
#X floatatom 1138 667 5 0 0 0 - - -;
#X floatatom 1073 665 5 0 0 0 - - -;
#X floatatom 1204 665 5 0 0 0 - - -;
#X floatatom 1263 665 5 0 0 0 - - -;
#X floatatom 1327 667 5 0 0 0 - - -;
#X floatatom 1399 668 5 0 0 0 - - -;
#X floatatom 1472 671 5 0 0 0 - - -;
#X msg 992 863 24 24 24 24 24 24 24;
#X msg 1047 813 add2 \$1;
#X msg 992 790 set;
#X obj -52 678 osc~;
#X floatatom -14 616 5 0 0 0 - - -;
#X obj 29 783 dac~;
#X obj 33 736 *~;
#X floatatom 98 697 5 0 100 0 - - -;
#X obj 119 745 * 0.01;
#X msg -166 534 222;
#X msg -105 528 333;
#X msg -29 531 444;
#X obj 461 447 cycle;
#X obj 1047 761 f;
#X obj 1111 761 f;
#X obj 1175 762 f;
#X obj 1232 762 f;
#X obj 1299 764 f;
#X obj 1365 765 f;
#X obj 1435 765 f;
#X obj 1047 725 b;
#X obj 1111 725 b;
#X obj 1175 725 b;
#X obj 1232 725 b;
#X obj 1299 725 b;
#X obj 1365 725 b;
#X obj 1435 725 b;
#X obj 519 446 random 7;
#X msg 778 643 bang;
#X floatatom 778 706 5 0 0 0 - - -;
#X obj 778 675 shuffle 1 4;
#X obj 858 705 select 1 2 3 4 5 6 7;
#X floatatom 840 648 5 0 0 0 - - -;
#X floatatom 886 648 5 0 0 0 - - -;
#X obj 279 21 loadbang;
#N canvas 0 0 450 300 IONIAN 0;
#X text 222 289 A;
#X text -206 88 C;
#X msg -184 90 0 2 4 5 7 9 11;
#X msg -49 91 1 3 5 6 8 10 12;
#X text -71 88 C#;
#X msg 95 92 2 4 6 7 9 11 13;
#X text 81 90 D;
#X obj -185 128 s scalesout;
#X obj -50 119 s scalesout;
#X obj 93 123 s scalesout;
#X obj -195 206 s scalesout;
#X obj -54 200 s scalesout;
#X obj 89 204 s scalesout;
#X msg -197 171 3 5 7 8 10 12 14;
#X text -216 172 Eb;
#X msg -53 172 4 6 8 9 11 13 15;
#X text -67 172 E;
#X text 78 172 F;
#X msg 91 173 5 7 9 10 12 14 16;
#X obj -221 279 s scalesout;
#X obj -63 273 s scalesout;
#X obj 80 277 s scalesout;
#X obj -224 360 s scalesout;
#X obj -67 354 s scalesout;
#X obj 95 358 s scalesout;
#X msg -223 244 6 8 10 11 13 15 17;
#X text -244 240 F#;
#X msg -65 243 7 9 11 12 14 16 18;
#X text -83 241 G;
#X msg 82 246 8 10 12 13 15 17 19;
#X text 62 247 Ab;
#X msg -226 325 9 11 13 14 16 18 20;
#X text -241 324 A;
#X text -90 325 Bb;
#X msg -67 326 10 12 14 15 17 19 21;
#X text 84 327 B;
#X msg 97 327 11 13 15 16 18 20 22;
#X text -36 44 IONIAN;
#X connect 2 0 7 0;
#X connect 3 0 8 0;
#X connect 5 0 9 0;
#X connect 13 0 10 0;
#X connect 15 0 11 0;
#X connect 18 0 12 0;
#X connect 25 0 19 0;
#X connect 27 0 20 0;
#X connect 29 0 21 0;
#X connect 31 0 22 0;
#X connect 34 0 23 0;
#X connect 36 0 24 0;
#X restore 377 263 pd IONIAN;
#X obj 1042 140 / 16;
#X obj 954 96 random 128;
#X obj 947 29 bng 15 250 50 0 empty empty empty 17 7 0 10 -262144 -1
-1;
#X floatatom 957 197 5 0 0 0 - - -;
#X floatatom 934 151 5 0 0 0 - - -;
#X obj 1042 176 int;
#X connect 1 0 2 0;
#X connect 5 0 3 0;
#X connect 7 0 6 0;
#X connect 8 0 9 0;
#X connect 9 0 11 0;
#X connect 9 0 32 0;
#X connect 9 1 10 0;
#X connect 9 1 31 0;
#X connect 9 2 12 0;
#X connect 9 2 30 0;
#X connect 9 3 13 0;
#X connect 9 3 17 0;
#X connect 9 4 14 0;
#X connect 9 4 35 0;
#X connect 9 5 15 0;
#X connect 9 5 34 0;
#X connect 9 6 16 0;
#X connect 9 6 33 0;
#X connect 17 0 39 0;
#X connect 17 0 59 1;
#X connect 18 0 29 0;
#X connect 19 0 28 0;
#X connect 20 0 28 0;
#X connect 21 0 28 0;
#X connect 22 0 28 0;
#X connect 23 0 28 0;
#X connect 24 0 28 0;
#X connect 25 0 28 0;
#X connect 26 0 28 0;
#X connect 27 0 28 0;
#X connect 28 0 17 0;
#X connect 28 0 30 0;
#X connect 28 0 31 0;
#X connect 28 0 32 0;
#X connect 28 0 35 0;
#X connect 28 0 34 0;
#X connect 28 0 33 0;
#X connect 28 1 17 1;
#X connect 28 1 30 1;
#X connect 28 1 31 1;
#X connect 28 1 32 1;
#X connect 28 1 35 1;
#X connect 28 1 34 1;
#X connect 28 1 33 1;
#X connect 29 0 19 0;
#X connect 29 1 20 0;
#X connect 29 2 21 0;
#X connect 29 3 22 0;
#X connect 29 4 23 0;
#X connect 29 5 24 0;
#X connect 29 6 25 0;
#X connect 29 7 26 0;
#X connect 29 8 27 0;
#X connect 30 0 38 0;
#X connect 30 0 58 1;
#X connect 31 0 36 0;
#X connect 31 0 57 1;
#X connect 32 0 37 0;
#X connect 32 0 56 1;
#X connect 33 0 42 0;
#X connect 33 0 62 1;
#X connect 34 0 41 0;
#X connect 34 0 61 1;
#X connect 35 0 40 0;
#X connect 35 0 60 1;
#X connect 44 0 43 0;
#X connect 45 0 43 0;
#X connect 46 0 49 0;
#X connect 47 0 46 0;
#X connect 49 0 48 0;
#X connect 49 0 48 1;
#X connect 50 0 51 0;
#X connect 51 0 49 1;
#X connect 52 0 47 0;
#X connect 53 0 47 0;
#X connect 54 0 47 0;
#X connect 56 0 44 0;
#X connect 57 0 44 0;
#X connect 58 0 44 0;
#X connect 59 0 44 0;
#X connect 60 0 44 0;
#X connect 61 0 44 0;
#X connect 62 0 44 0;
#X connect 63 0 56 0;
#X connect 64 0 57 0;
#X connect 65 0 58 0;
#X connect 66 0 59 0;
#X connect 67 0 60 0;
#X connect 68 0 61 0;
#X connect 69 0 62 0;
#X connect 71 0 73 0;
#X connect 73 0 72 0;
#X connect 73 0 74 0;
#X connect 74 0 63 0;
#X connect 74 1 64 0;
#X connect 74 2 65 0;
#X connect 74 3 66 0;
#X connect 74 4 67 0;
#X connect 74 5 68 0;
#X connect 74 6 69 0;
#X connect 75 0 73 0;
#X connect 76 0 73 1;
#X connect 77 0 1 0;
#X connect 79 0 84 0;
#X connect 80 0 79 0;
#X connect 80 0 83 0;
#X connect 81 0 80 0;
#X connect 84 0 18 0;
#X connect 84 0 82 0;
#X restore 1305 335 pd SCALES;
#X connect 4 0 3 0;
