#N canvas 36 23 1280 703 12;
#X obj 563 371 unpack f1 f2 f3 f4 f54 f6 f7 f8 f9 f10;
#X floatatom 514 399 5 0 0 0 - - -, f 5;
#X floatatom 555 400 5 0 0 0 - - -, f 5;
#X floatatom 599 396 5 0 0 0 - - -, f 5;
#X floatatom 644 398 5 0 0 0 - - -, f 5;
#X floatatom 692 399 5 0 0 0 - - -, f 5;
#X floatatom 730 401 5 0 0 0 - - -, f 5;
#X floatatom 777 404 5 0 0 0 - - -, f 5;
#X floatatom 818 401 5 0 0 0 - - -, f 5;
#X floatatom 861 399 5 0 0 0 - - -, f 5;
#X floatatom 908 402 5 0 0 0 - - -, f 5;
#X obj 375 466 s Genom1;
#X obj 446 468 s Genom2;
#X obj 525 463 s Genom3;
#X obj 600 463 s Genom4;
#X obj 681 468 s Genom5;
#X obj 756 468 s Genom6;
#X obj 835 463 s Genom7;
#X obj 910 463 s Genom8;
#X obj 984 464 s Genom9;
#X obj 1059 464 s Genom10;
#X obj 456 228 s FullGenome;
#X obj 427 81, f 17;
#X obj 493 92;
#X obj 659 145 netreceive 3000;
#X connect 0 0 1 0;
#X connect 0 1 2 0;
#X connect 0 2 3 0;
#X connect 0 3 4 0;
#X connect 0 4 5 0;
#X connect 0 5 6 0;
#X connect 0 6 7 0;
#X connect 0 7 8 0;
#X connect 0 8 9 0;
#X connect 0 9 10 0;
#X connect 1 0 11 0;
#X connect 2 0 12 0;
#X connect 3 0 13 0;
#X connect 4 0 14 0;
#X connect 5 0 15 0;
#X connect 6 0 16 0;
#X connect 7 0 17 0;
#X connect 8 0 18 0;
#X connect 9 0 19 0;
#X connect 10 0 20 0;
#X connect 24 0 21 0;
#X connect 24 0 0 0;
