#N canvas 0 0 1920 997 12;
#X obj 563 144 netreceive 3000;
#X obj 563 371 unpack f1 f2 f3 f4 f54 f6 f7 f8 f9 f10;
#X floatatom 514 399 5 0 0 0 - - -;
#X floatatom 555 400 5 0 0 0 - - -;
#X floatatom 599 396 5 0 0 0 - - -;
#X floatatom 644 398 5 0 0 0 - - -;
#X floatatom 692 399 5 0 0 0 - - -;
#X floatatom 730 401 5 0 0 0 - - -;
#X floatatom 777 404 5 0 0 0 - - -;
#X floatatom 818 401 5 0 0 0 - - -;
#X floatatom 861 399 5 0 0 0 - - -;
#X floatatom 908 402 5 0 0 0 - - -;
#X msg 563 228 set \$1 \$2 \$3 \$4 \$5 \$6 \$7 \$8 \$9 \$10;
#X msg 563 331;
#X obj 563 279 t b a;
#X obj 375 466 s Genom1;
#X obj 446 468 s Genom2;
#X obj 525 463 s Genom3;
#X obj 600 463 s Genom4;
#X obj 681 468 s Genom5;
#X obj 756 468 s Genom6;
#X obj 835 463 s Genom7;
#X obj 910 463 s Genom8;
#X obj 984 464 s Genom9;
#X obj 1059 464 s Genom10;
#X obj 456 228 s FullGenome;
#X connect 0 0 12 0;
#X connect 0 0 25 0;
#X connect 1 0 2 0;
#X connect 1 1 3 0;
#X connect 1 2 4 0;
#X connect 1 3 5 0;
#X connect 1 4 6 0;
#X connect 1 5 7 0;
#X connect 1 6 8 0;
#X connect 1 7 9 0;
#X connect 1 8 10 0;
#X connect 1 9 11 0;
#X connect 2 0 15 0;
#X connect 3 0 16 0;
#X connect 4 0 17 0;
#X connect 5 0 18 0;
#X connect 6 0 19 0;
#X connect 7 0 20 0;
#X connect 8 0 21 0;
#X connect 9 0 22 0;
#X connect 10 0 23 0;
#X connect 11 0 24 0;
#X connect 12 0 14 0;
#X connect 13 0 1 0;
#X connect 14 0 13 0;
#X connect 14 1 13 0;
