#N canvas 0 0 1920 997 12;
#X obj 522 359 hip~;
#X floatatom 649 294 5 0 0 0 - - hip_del;
#X obj 560 326 r hip_del;
#X obj 521 392 hip~;
#X obj 559 359 r hip_del;
#X obj 521 456 hip~;
#X obj 559 425 r hip_del;
#X obj 521 247 r~ pureOut;
#X obj 407 510 dac~;
#X obj 408 475 *~;
#X floatatom 426 413 5 0 100 0 - - -;
#X floatatom 853 394 5 0 0 0 - - -;
#X obj 853 419 pack f 55;
#X obj 853 446 line~;
#X obj 756 532 *~;
#X floatatom 774 478 5 0 100 0 - - -;
#X obj 983 589 dac~;
#X obj 984 554 *~;
#X floatatom 1002 481 5 0 100 0 - - -;
#X obj 521 552 delwrite~ SIRR 1280;
#X obj 854 481 vd~ SIRR 1280;
#X obj 521 424 hip~;
#X obj 559 391 r hip_del;
#X text 638 317 0 12800;
#X obj 613 71 unpack f1 f2 f3 f4 f5;
#X floatatom 649 130 5 0 0 0 - - -;
#X floatatom 685 103 5 0 0 0 - - -;
#X floatatom 721 130 5 0 0 0 - - -;
#X floatatom 757 103 5 0 0 0 - - -;
#X floatatom 613 102 5 0 0 0 - - -;
#X obj 426 308 / 128;
#X obj 649 239 * 100;
#X obj 853 311 * 10;
#X obj 1002 307 / 128;
#X obj 774 318 / 128;
#X obj 522 291 *~;
#X obj 573 271 tgl 20 0 empty empty empty 17 7 0 10 -262144 -1 -1 0
1;
#X obj 613 29 r FullGenome;
#X obj 1017 131 r Genom1;
#X obj 1088 133 r Genom2;
#X obj 1167 128 r Genom3;
#X obj 1239 130 r Genom4;
#X obj 1321 132 r Genom5;
#X floatatom 1018 158 5 0 0 0 - - -;
#X floatatom 1095 175 5 0 0 0 - - -;
#X floatatom 1180 166 5 0 0 0 - - -;
#X floatatom 1240 181 5 0 0 0 - - -;
#X floatatom 1322 185 5 0 0 0 - - -;
#X text 864 371 min 0 \, max 1280;
#X text 670 477 min 0 \, max 1!!!;
#X connect 0 0 3 0;
#X connect 2 0 0 1;
#X connect 3 0 21 0;
#X connect 4 0 3 1;
#X connect 5 0 9 0;
#X connect 5 0 19 0;
#X connect 6 0 5 1;
#X connect 7 0 35 0;
#X connect 9 0 8 0;
#X connect 9 0 8 1;
#X connect 10 0 9 1;
#X connect 11 0 12 0;
#X connect 12 0 13 0;
#X connect 13 0 20 0;
#X connect 14 0 19 0;
#X connect 15 0 14 1;
#X connect 17 0 16 0;
#X connect 17 0 16 1;
#X connect 18 0 17 1;
#X connect 20 0 14 0;
#X connect 20 0 17 0;
#X connect 21 0 5 0;
#X connect 22 0 21 1;
#X connect 24 0 29 0;
#X connect 24 1 25 0;
#X connect 24 2 26 0;
#X connect 24 3 27 0;
#X connect 24 4 28 0;
#X connect 25 0 31 0;
#X connect 26 0 34 0;
#X connect 27 0 32 0;
#X connect 28 0 33 0;
#X connect 29 0 30 0;
#X connect 30 0 10 0;
#X connect 31 0 1 0;
#X connect 32 0 11 0;
#X connect 33 0 18 0;
#X connect 34 0 15 0;
#X connect 35 0 0 0;
#X connect 36 0 35 1;
#X connect 37 0 24 0;
#X connect 38 0 43 0;
#X connect 39 0 44 0;
#X connect 40 0 45 0;
#X connect 41 0 46 0;
#X connect 42 0 47 0;
