#N canvas 8 66 1259 673 12;
#N canvas 0 50 1916 997 (subpatch) 0;
#X array \$0-ARRAY 887456 float 2;
#X coords 0 1 887456 -1 200 140 1;
#X restore 399 75 graph;
#X obj 623 606 dac~;
#X obj 625 341 bng 20 250 50 0 empty empty empty 17 7 0 10 -262144
-1 -1;
#X obj 625 411 tabplay~ \$0-ARRAY;
#X floatatom 628 170 10 0 0 0 - - -, f 10;
#X obj 651 85 bng 20 250 50 0 empty empty empty 17 7 0 10 -262144 -1
-1;
#N canvas 0 36 1280 651 load 0;
#X obj 111 26 inlet;
#X obj 111 349 soundfiler;
#X obj 111 90 openpanel;
#X obj 111 136 t b a;
#X msg 111 162 /Users/polaschwoebel/Documents/Uni/Artificial Life/project/evolution_and_music/palestrina.wav
;
#X msg 111 113 set \$1;
#X obj 195 83 f \$0;
#X obj 111 63 t b b;
#X obj 111 321 list trim;
#X obj 111 294 list;
#X obj 59 435 outlet;
#X obj 41 142 inlet;
#X msg 195 103 \$1-ARRAY;
#X obj 111 236 list prepend read -resize;
#X obj 111 436 s \$0-ARRAY;
#X obj 111 377 bang;
#X msg 111 405 normalize;
#X msg 520 248 /Users/polaschwoebel/Documents/Uni/Artificial Life/project/evolution_and_music/palestrina.wav
;
#X obj 530 319 soundfiler;
#X obj 530 406 s \$0-ARRAY;
#X obj 530 347 bang;
#X msg 530 375 normalize;
#X connect 0 0 7 0;
#X connect 1 0 10 0;
#X connect 1 0 15 0;
#X connect 2 0 5 0;
#X connect 3 0 4 0;
#X connect 3 1 4 0;
#X connect 4 0 13 0;
#X connect 5 0 3 0;
#X connect 6 0 12 0;
#X connect 7 0 2 0;
#X connect 7 1 6 0;
#X connect 8 0 1 0;
#X connect 9 0 8 0;
#X connect 11 0 4 0;
#X connect 12 0 9 1;
#X connect 13 0 9 0;
#X connect 15 0 16 0;
#X connect 16 0 14 0;
#X connect 17 0 18 0;
#X connect 18 0 20 0;
#X connect 20 0 21 0;
#X connect 21 0 19 0;
#X restore 628 143 pd load;
#X obj 739 365 spigot;
#X obj 784 331 tgl 20 0 empty empty empty 17 7 0 10 -262144 -1 -1 1
1;
#X obj 624 571 *~;
#X obj 649 439 s~ pureOut;
#X msg 559 480 0;
#X msg 578 371 stop;
#X obj 507 551 * 0.01;
#X obj 855 807 netreceive;
#X text 813 332 LOOP;
#X text 581 342 PLAY;
#X obj 488 480 vsl 30 60 0 100 0 0 empty empty empty 0 -9 0 10 -262144
-1 -1 800 1;
#X text 646 64 LOAD SOUND (WAV only);
#X obj 784 264 loadbang;
#X msg 784 304 1;
#X connect 2 0 3 0;
#X connect 3 0 9 0;
#X connect 3 0 10 0;
#X connect 3 1 7 0;
#X connect 4 0 2 0;
#X connect 5 0 6 1;
#X connect 6 0 4 0;
#X connect 7 0 2 0;
#X connect 8 0 7 1;
#X connect 9 0 1 0;
#X connect 9 0 1 1;
#X connect 11 0 9 1;
#X connect 12 0 3 0;
#X connect 13 0 9 1;
#X connect 17 0 13 0;
#X connect 19 0 20 0;
#X connect 20 0 8 0;
